<svg xmlns="http://www.w3.org/2000/svg" xmlns:xlink="http://www.w3.org/1999/xlink" width="500" zoomAndPan="magnify" viewBox="0 0 375 374.999991" height="500" preserveAspectRatio="xMidYMid meet" version="1.0"><defs><g/></defs><rect x="-37.5" width="450" fill="#ffffff" y="-37.499999" height="449.999989" fill-opacity="1"/><rect x="-37.5" width="450" fill="#545454" y="-37.499999" height="449.999989" fill-opacity="1"/><rect x="-37.5" width="450" fill="#ffffff" y="-37.499999" height="449.999989" fill-opacity="1"/><rect x="-37.5" width="450" fill="#545454" y="-37.499999" height="449.999989" fill-opacity="1"/><g fill="#ffffff" fill-opacity="1"><g transform="translate(15.817044, 207.560758)"><g><path d="M 50.4375 0 L 67.8125 -41.3125 C 70.375 -47.15625 69.015625 -53.480469 62.847656 -55.882812 C 56.363281 -58.445312 49.71875 -54.683594 46.597656 -46.835938 L 41.710938 -35.546875 L 32.984375 -56.605469 L 26.261719 -56.605469 L 38.351562 -27.542969 L 30.183594 -8.007812 L 9.769531 -56.605469 L 2.800781 -56.605469 L 26.742188 0 L 27.460938 0 L 38.589844 -26.820312 L 49.878906 0 Z M 42.191406 -34.667969 L 47.15625 -46.835938 C 49.878906 -53.160156 55.722656 -57.964844 62.6875 -55.402344 C 68.613281 -53.082031 69.65625 -46.835938 67.414062 -41.3125 L 53.320312 -8.007812 Z M 42.191406 -34.667969 "/></g></g></g><g fill="#ffffff" fill-opacity="1"><g transform="translate(87.713172, 207.560758)"><g><path d="M 8.96875 -37.710938 C 11.289062 -28.261719 20.894531 -28.742188 25.539062 -23.457031 L 25.539062 -29.785156 C 14.570312 -29.785156 8.96875 -32.023438 8.96875 -42.992188 L 8.96875 -55.964844 L 15.53125 -55.964844 C 25.300781 -55.964844 29.464844 -55.5625 35.148438 -50.117188 L 35.148438 -56.523438 L 2.800781 -56.523438 L 2.800781 0 L 34.667969 0 L 36.507812 -11.847656 C 33.625 -3.761719 29.464844 -0.640625 22.496094 -0.640625 L 8.96875 -0.640625 Z M 8.96875 -37.710938 "/></g></g></g><g fill="#ffffff" fill-opacity="1"><g transform="translate(127.023866, 207.560758)"><g><path d="M 26.5 -31.144531 C 32.984375 -32.503906 38.269531 -36.507812 38.269531 -43.714844 C 38.269531 -52.921875 28.664062 -56.523438 16.652344 -56.523438 L 2.800781 -56.523438 L 2.800781 0 L 21.777344 0 C 34.105469 -0.078125 43.714844 -2.800781 43.714844 -15.691406 C 43.714844 -27.0625 36.589844 -30.421875 26.5 -31.144531 Z M 37.46875 -15.691406 C 37.46875 -1.28125 28.34375 -0.640625 21.136719 -0.640625 L 9.128906 -0.640625 L 9.128906 -44.59375 C 9.769531 -41.472656 10.726562 -38.75 12.167969 -36.589844 C 14.492188 -32.90625 18.015625 -30.742188 21.777344 -30.742188 C 28.742188 -30.742188 37.46875 -30.023438 37.46875 -15.691406 Z M 32.023438 -43.714844 C 32.023438 -34.988281 27.140625 -31.382812 21.777344 -31.382812 C 18.175781 -31.382812 15.050781 -33.386719 12.808594 -36.988281 C 10.488281 -40.351562 9.128906 -45.15625 9.128906 -50.679688 L 9.128906 -55.964844 L 16.652344 -55.964844 C 24.339844 -55.964844 32.023438 -52.839844 32.023438 -43.714844 Z M 32.023438 -43.714844 "/></g></g></g><g fill="#ffffff" fill-opacity="1"><g transform="translate(173.540182, 207.560758)"><g><path d="M 10.007812 -0.480469 L 40.109375 -56.605469 L 2.800781 -56.605469 L 2.800781 -50.359375 C 8.648438 -55.722656 12.570312 -55.964844 22.417969 -55.964844 L 32.585938 -55.964844 L 2.800781 0 L 39.472656 0 L 39.472656 -6.324219 C 33.707031 -0.960938 29.785156 -0.480469 19.855469 -0.480469 Z M 10.007812 -0.480469 "/></g></g></g><g fill="#ffffff" fill-opacity="1"><g transform="translate(216.45368, 207.560758)"><g><path d="M 8.96875 -37.710938 C 11.289062 -28.261719 20.894531 -28.742188 25.539062 -23.457031 L 25.539062 -29.785156 C 14.570312 -29.785156 8.96875 -32.023438 8.96875 -42.992188 L 8.96875 -55.964844 L 15.53125 -55.964844 C 25.300781 -55.964844 29.464844 -55.5625 35.148438 -50.117188 L 35.148438 -56.523438 L 2.800781 -56.523438 L 2.800781 0 L 34.667969 0 L 36.507812 -11.847656 C 33.625 -3.761719 29.464844 -0.640625 22.496094 -0.640625 L 8.96875 -0.640625 Z M 8.96875 -37.710938 "/></g></g></g><g fill="#ffffff" fill-opacity="1"><g transform="translate(255.764385, 207.560758)"><g><path d="M 21.855469 0 L 28.023438 0 L 28.023438 -55.964844 C 36.507812 -55.882812 41.632812 -55.402344 47.078125 -50.359375 L 47.078125 -56.605469 L 2.800781 -56.605469 L 2.800781 -50.359375 C 8.085938 -55.402344 13.289062 -55.882812 21.855469 -55.964844 Z M 21.855469 0 "/></g></g><g transform="translate(305.643322, 207.560758)"><g><path d="M 41.710938 0 L 48.4375 0 L 24.5 -56.523438 L 23.9375 -56.523438 C 17.855469 -46.195312 10.648438 -31.625 6.40625 -20.175781 C 4.484375 -15.050781 3.363281 -10.566406 2.960938 -7.046875 C 2.5625 -3.441406 3.441406 -1.039062 5.605469 -0.078125 C 6.164062 0.398438 6.40625 0.398438 6.886719 0.480469 C 10.488281 0.640625 11.847656 -2.320312 13.371094 -6.324219 C 15.933594 -12.167969 19.054688 -20.414062 32.664062 -21.695312 Z M 32.425781 -22.257812 C 18.574219 -20.894531 15.371094 -12.488281 12.730469 -6.484375 C 11.449219 -2.800781 10.167969 0 6.964844 -0.238281 C 6.566406 -0.480469 6.324219 -0.480469 5.84375 -0.640625 C 3.921875 -1.28125 3.363281 -3.761719 3.523438 -7.046875 C 3.921875 -10.488281 5.042969 -14.890625 6.964844 -20.015625 C 10.328125 -29.304688 15.773438 -40.191406 20.65625 -49.640625 Z M 32.425781 -22.257812 "/></g></g></g><path stroke-linecap="butt" transform="matrix(1.499395, 0, 0, 1.5, 37.500002, 266.461418)" fill="none" stroke-linejoin="miter" d="M -0.00000135888 -0.000320135 L 77.539069 -0.000320135 " stroke="#fcb887" stroke-width="1" stroke-opacity="1" stroke-miterlimit="4"/><g fill="#ffffff" fill-opacity="1"><g transform="translate(101.818869, 228.804052)"><g><path d="M 3.15625 0.234375 C 2.320312 0.234375 1.679688 0.09375 1.234375 -0.1875 C 0.796875 -0.476562 0.578125 -0.910156 0.578125 -1.484375 C 0.578125 -1.765625 0.675781 -2 0.875 -2.1875 C 1.070312 -2.375 1.328125 -2.46875 1.640625 -2.46875 C 1.816406 -2.457031 1.953125 -2.410156 2.046875 -2.328125 C 2.140625 -2.242188 2.1875 -2.164062 2.1875 -2.09375 C 2.1875 -2.09375 2.144531 -2.066406 2.0625 -2.015625 C 1.988281 -1.960938 1.921875 -1.890625 1.859375 -1.796875 C 1.796875 -1.703125 1.765625 -1.570312 1.765625 -1.40625 C 1.765625 -1.03125 1.875 -0.738281 2.09375 -0.53125 C 2.320312 -0.332031 2.675781 -0.234375 3.15625 -0.234375 C 3.476562 -0.234375 3.765625 -0.296875 4.015625 -0.421875 C 4.265625 -0.554688 4.453125 -0.726562 4.578125 -0.9375 C 4.710938 -1.144531 4.78125 -1.363281 4.78125 -1.59375 C 4.78125 -1.882812 4.695312 -2.128906 4.53125 -2.328125 C 4.375 -2.535156 4.175781 -2.707031 3.9375 -2.84375 C 3.695312 -2.988281 3.367188 -3.15625 2.953125 -3.34375 C 2.472656 -3.550781 2.085938 -3.742188 1.796875 -3.921875 C 1.503906 -4.097656 1.253906 -4.332031 1.046875 -4.625 C 0.835938 -4.914062 0.734375 -5.273438 0.734375 -5.703125 C 0.734375 -6.390625 0.96875 -6.90625 1.4375 -7.25 C 1.914062 -7.59375 2.539062 -7.765625 3.3125 -7.765625 C 3.914062 -7.765625 4.441406 -7.632812 4.890625 -7.375 C 5.335938 -7.125 5.5625 -6.753906 5.5625 -6.265625 C 5.5625 -5.972656 5.460938 -5.734375 5.265625 -5.546875 C 5.078125 -5.359375 4.828125 -5.265625 4.515625 -5.265625 C 4.335938 -5.273438 4.195312 -5.320312 4.09375 -5.40625 C 4 -5.488281 3.953125 -5.566406 3.953125 -5.640625 C 3.953125 -5.648438 4.003906 -5.675781 4.109375 -5.71875 C 4.222656 -5.769531 4.320312 -5.84375 4.40625 -5.9375 C 4.488281 -6.03125 4.53125 -6.160156 4.53125 -6.328125 C 4.53125 -6.617188 4.414062 -6.847656 4.1875 -7.015625 C 3.957031 -7.179688 3.671875 -7.265625 3.328125 -7.265625 C 2.835938 -7.265625 2.46875 -7.148438 2.21875 -6.921875 C 1.96875 -6.703125 1.84375 -6.425781 1.84375 -6.09375 C 1.84375 -5.8125 1.914062 -5.578125 2.0625 -5.390625 C 2.21875 -5.203125 2.460938 -5.019531 2.796875 -4.84375 C 3.066406 -4.695312 3.363281 -4.550781 3.6875 -4.40625 C 4.195312 -4.175781 4.597656 -3.96875 4.890625 -3.78125 C 5.191406 -3.59375 5.441406 -3.34375 5.640625 -3.03125 C 5.847656 -2.71875 5.953125 -2.332031 5.953125 -1.875 C 5.953125 -1.476562 5.828125 -1.117188 5.578125 -0.796875 C 5.328125 -0.472656 4.988281 -0.21875 4.5625 -0.03125 C 4.132812 0.144531 3.664062 0.234375 3.15625 0.234375 Z M 3.15625 0.234375 "/></g></g></g><g fill="#ffffff" fill-opacity="1"><g transform="translate(109.738674, 228.804052)"><g><path d="M 4.359375 0.234375 C 3.609375 0.234375 2.941406 0.0546875 2.359375 -0.296875 C 1.785156 -0.660156 1.34375 -1.140625 1.03125 -1.734375 C 0.71875 -2.335938 0.5625 -2.976562 0.5625 -3.65625 C 0.5625 -4.488281 0.75 -5.210938 1.125 -5.828125 C 1.5 -6.453125 1.976562 -6.929688 2.5625 -7.265625 C 3.15625 -7.597656 3.753906 -7.765625 4.359375 -7.765625 C 5.128906 -7.765625 5.804688 -7.582031 6.390625 -7.21875 C 6.972656 -6.851562 7.421875 -6.375 7.734375 -5.78125 C 8.046875 -5.195312 8.203125 -4.5625 8.203125 -3.875 C 8.203125 -3.039062 8.007812 -2.3125 7.625 -1.6875 C 7.25 -1.0625 6.757812 -0.582031 6.15625 -0.25 C 5.5625 0.0703125 4.960938 0.234375 4.359375 0.234375 Z M 4.34375 -0.28125 C 4.882812 -0.28125 5.335938 -0.441406 5.703125 -0.765625 C 6.066406 -1.085938 6.335938 -1.519531 6.515625 -2.0625 C 6.691406 -2.613281 6.78125 -3.21875 6.78125 -3.875 C 6.78125 -4.488281 6.6875 -5.050781 6.5 -5.5625 C 6.320312 -6.070312 6.050781 -6.476562 5.6875 -6.78125 C 5.320312 -7.09375 4.875 -7.25 4.34375 -7.25 C 3.550781 -7.25 2.953125 -6.910156 2.546875 -6.234375 C 2.148438 -5.566406 1.953125 -4.722656 1.953125 -3.703125 C 1.953125 -3.078125 2.039062 -2.503906 2.21875 -1.984375 C 2.394531 -1.472656 2.660156 -1.0625 3.015625 -0.75 C 3.378906 -0.4375 3.820312 -0.28125 4.34375 -0.28125 Z M 4.34375 -0.28125 "/></g></g></g><g fill="#ffffff" fill-opacity="1"><g transform="translate(119.920678, 228.804052)"><g><path d="M 0.71875 0.03125 C 0.65625 0.03125 0.601562 0.00390625 0.5625 -0.046875 C 0.53125 -0.0976562 0.515625 -0.15625 0.515625 -0.21875 C 0.523438 -0.34375 0.546875 -0.414062 0.578125 -0.4375 C 0.617188 -0.46875 0.695312 -0.484375 0.8125 -0.484375 C 1.039062 -0.484375 1.207031 -0.523438 1.3125 -0.609375 C 1.425781 -0.691406 1.5 -0.789062 1.53125 -0.90625 C 1.5625 -1.03125 1.578125 -1.191406 1.578125 -1.390625 L 1.578125 -6.125 C 1.578125 -6.320312 1.5625 -6.484375 1.53125 -6.609375 C 1.5 -6.734375 1.425781 -6.835938 1.3125 -6.921875 C 1.207031 -7.003906 1.039062 -7.046875 0.8125 -7.046875 L 0.734375 -7.046875 C 0.660156 -7.046875 0.609375 -7.054688 0.578125 -7.078125 C 0.546875 -7.109375 0.523438 -7.179688 0.515625 -7.296875 C 0.515625 -7.367188 0.53125 -7.429688 0.5625 -7.484375 C 0.601562 -7.535156 0.65625 -7.5625 0.71875 -7.5625 C 1.226562 -7.53125 1.703125 -7.515625 2.140625 -7.515625 L 5.578125 -7.515625 C 5.785156 -7.515625 5.890625 -7.421875 5.890625 -7.234375 L 5.921875 -5.5625 C 5.921875 -5.488281 5.882812 -5.429688 5.8125 -5.390625 C 5.738281 -5.347656 5.671875 -5.328125 5.609375 -5.328125 C 5.503906 -5.328125 5.414062 -5.34375 5.34375 -5.375 C 5.269531 -5.414062 5.226562 -5.472656 5.21875 -5.546875 C 5.164062 -5.929688 5.097656 -6.222656 5.015625 -6.421875 C 4.941406 -6.628906 4.832031 -6.78125 4.6875 -6.875 C 4.539062 -6.976562 4.332031 -7.035156 4.0625 -7.046875 L 2.765625 -7.046875 L 2.765625 -3.953125 L 4.90625 -3.953125 C 4.96875 -3.941406 5.015625 -3.910156 5.046875 -3.859375 C 5.078125 -3.804688 5.09375 -3.742188 5.09375 -3.671875 C 5.09375 -3.609375 5.078125 -3.550781 5.046875 -3.5 C 5.015625 -3.457031 4.96875 -3.4375 4.90625 -3.4375 L 2.765625 -3.4375 L 2.765625 -1.390625 C 2.773438 -1.191406 2.789062 -1.03125 2.8125 -0.90625 C 2.84375 -0.789062 2.910156 -0.691406 3.015625 -0.609375 C 3.128906 -0.523438 3.304688 -0.484375 3.546875 -0.484375 L 3.609375 -0.484375 C 3.679688 -0.484375 3.734375 -0.46875 3.765625 -0.4375 C 3.804688 -0.40625 3.832031 -0.332031 3.84375 -0.21875 C 3.84375 -0.15625 3.820312 -0.0976562 3.78125 -0.046875 C 3.75 0.00390625 3.695312 0.03125 3.625 0.03125 C 3.113281 0.0078125 2.617188 0 2.140625 0 C 1.703125 0 1.226562 0.0078125 0.71875 0.03125 Z M 0.71875 0.03125 "/></g></g></g><g fill="#ffffff" fill-opacity="1"><g transform="translate(127.602355, 228.804052)"><g><path d="M 2.140625 0.03125 C 2.066406 0.03125 2.007812 0.00390625 1.96875 -0.046875 C 1.9375 -0.0976562 1.921875 -0.15625 1.921875 -0.21875 C 1.929688 -0.34375 1.953125 -0.414062 1.984375 -0.4375 C 2.023438 -0.46875 2.101562 -0.484375 2.21875 -0.484375 C 2.445312 -0.484375 2.613281 -0.523438 2.71875 -0.609375 C 2.832031 -0.691406 2.90625 -0.789062 2.9375 -0.90625 C 2.96875 -1.03125 2.988281 -1.191406 3 -1.390625 L 3 -7.078125 L 2.171875 -7.078125 C 1.898438 -7.066406 1.691406 -7.007812 1.546875 -6.90625 C 1.398438 -6.800781 1.285156 -6.640625 1.203125 -6.421875 C 1.128906 -6.210938 1.066406 -5.914062 1.015625 -5.53125 C 1.003906 -5.46875 0.953125 -5.414062 0.859375 -5.375 C 0.773438 -5.332031 0.6875 -5.3125 0.59375 -5.3125 C 0.519531 -5.3125 0.453125 -5.332031 0.390625 -5.375 C 0.335938 -5.425781 0.3125 -5.488281 0.3125 -5.5625 L 0.34375 -7.234375 C 0.34375 -7.421875 0.453125 -7.515625 0.671875 -7.515625 L 6.5 -7.515625 C 6.707031 -7.515625 6.8125 -7.421875 6.8125 -7.234375 L 6.859375 -5.5625 C 6.859375 -5.488281 6.828125 -5.425781 6.765625 -5.375 C 6.703125 -5.332031 6.632812 -5.3125 6.5625 -5.3125 C 6.457031 -5.3125 6.363281 -5.332031 6.28125 -5.375 C 6.195312 -5.414062 6.15625 -5.46875 6.15625 -5.53125 C 6.09375 -5.925781 6.023438 -6.226562 5.953125 -6.4375 C 5.878906 -6.644531 5.765625 -6.800781 5.609375 -6.90625 C 5.460938 -7.007812 5.253906 -7.066406 4.984375 -7.078125 L 4.171875 -7.078125 L 4.171875 -1.390625 C 4.179688 -1.191406 4.195312 -1.03125 4.21875 -0.90625 C 4.25 -0.789062 4.320312 -0.691406 4.4375 -0.609375 C 4.550781 -0.523438 4.722656 -0.484375 4.953125 -0.484375 L 5.015625 -0.484375 C 5.085938 -0.484375 5.140625 -0.46875 5.171875 -0.4375 C 5.210938 -0.40625 5.238281 -0.332031 5.25 -0.21875 C 5.25 -0.15625 5.226562 -0.0976562 5.1875 -0.046875 C 5.15625 0.00390625 5.101562 0.03125 5.03125 0.03125 C 4.519531 0.0078125 4.050781 0 3.625 0 C 3.144531 0 2.648438 0.0078125 2.140625 0.03125 Z M 2.140625 0.03125 "/></g></g></g><g fill="#ffffff" fill-opacity="1"><g transform="translate(136.177, 228.804052)"><g><path d="M 1.34375 -6.078125 C 1.207031 -6.421875 1.078125 -6.660156 0.953125 -6.796875 C 0.828125 -6.929688 0.640625 -7.019531 0.390625 -7.0625 C 0.359375 -7.070312 0.3125 -7.082031 0.25 -7.09375 C 0.1875 -7.113281 0.144531 -7.140625 0.125 -7.171875 C 0.101562 -7.203125 0.09375 -7.257812 0.09375 -7.34375 C 0.09375 -7.4375 0.117188 -7.5 0.171875 -7.53125 C 0.222656 -7.5625 0.304688 -7.578125 0.421875 -7.578125 C 1.015625 -7.578125 1.460938 -7.484375 1.765625 -7.296875 C 2.078125 -7.117188 2.328125 -6.796875 2.515625 -6.328125 L 3.875 -1.96875 L 3.921875 -1.96875 L 5.375 -7.515625 L 6 -7.515625 L 7.9375 -1.96875 L 7.96875 -1.96875 L 9.328125 -6.46875 C 9.359375 -6.582031 9.375 -6.679688 9.375 -6.765625 C 9.375 -6.878906 9.332031 -6.953125 9.25 -6.984375 C 9.164062 -7.023438 9.015625 -7.046875 8.796875 -7.046875 L 8.734375 -7.046875 C 8.648438 -7.046875 8.59375 -7.054688 8.5625 -7.078125 C 8.53125 -7.109375 8.507812 -7.179688 8.5 -7.296875 C 8.5 -7.367188 8.515625 -7.429688 8.546875 -7.484375 C 8.585938 -7.535156 8.640625 -7.5625 8.703125 -7.5625 C 9.222656 -7.53125 9.65625 -7.515625 10 -7.515625 C 10.15625 -7.515625 10.445312 -7.523438 10.875 -7.546875 L 11.125 -7.5625 C 11.195312 -7.5625 11.25 -7.535156 11.28125 -7.484375 C 11.320312 -7.429688 11.34375 -7.367188 11.34375 -7.296875 C 11.332031 -7.179688 11.3125 -7.109375 11.28125 -7.078125 C 11.25 -7.054688 11.191406 -7.046875 11.109375 -7.046875 C 10.765625 -7.046875 10.492188 -6.988281 10.296875 -6.875 C 10.097656 -6.757812 9.957031 -6.546875 9.875 -6.234375 L 7.921875 0.125 L 7.359375 0.125 L 5.421875 -5.5625 L 3.890625 0.125 L 3.328125 0.125 Z M 1.34375 -6.078125 "/></g></g></g><g fill="#ffffff" fill-opacity="1"><g transform="translate(148.728364, 228.804052)"><g><path d="M 0.078125 0.03125 C 0.00390625 0.03125 -0.046875 0.00390625 -0.078125 -0.046875 C -0.117188 -0.0976562 -0.140625 -0.15625 -0.140625 -0.21875 C -0.128906 -0.34375 -0.101562 -0.414062 -0.0625 -0.4375 C -0.03125 -0.46875 0.0078125 -0.484375 0.0625 -0.484375 C 0.125 -0.484375 0.160156 -0.484375 0.171875 -0.484375 C 0.410156 -0.484375 0.585938 -0.539062 0.703125 -0.65625 C 0.816406 -0.78125 0.90625 -0.921875 0.96875 -1.078125 C 1.039062 -1.234375 1.085938 -1.335938 1.109375 -1.390625 L 3.1875 -6.328125 C 3.238281 -6.453125 3.265625 -6.546875 3.265625 -6.609375 C 3.265625 -6.753906 3.207031 -6.859375 3.09375 -6.921875 C 2.988281 -6.984375 2.835938 -7.035156 2.640625 -7.078125 C 2.503906 -7.109375 2.421875 -7.132812 2.390625 -7.15625 C 2.359375 -7.175781 2.34375 -7.242188 2.34375 -7.359375 C 2.34375 -7.453125 2.363281 -7.515625 2.40625 -7.546875 C 2.457031 -7.578125 2.539062 -7.59375 2.65625 -7.59375 C 3.050781 -7.59375 3.363281 -7.5625 3.59375 -7.5 C 3.832031 -7.445312 4.039062 -7.328125 4.21875 -7.140625 C 4.394531 -6.960938 4.554688 -6.691406 4.703125 -6.328125 L 6.71875 -1.390625 C 6.832031 -1.085938 6.941406 -0.859375 7.046875 -0.703125 C 7.160156 -0.554688 7.332031 -0.484375 7.5625 -0.484375 L 7.625 -0.484375 C 7.707031 -0.484375 7.765625 -0.46875 7.796875 -0.4375 C 7.828125 -0.40625 7.847656 -0.332031 7.859375 -0.21875 C 7.859375 -0.15625 7.835938 -0.0976562 7.796875 -0.046875 C 7.765625 0.00390625 7.710938 0.03125 7.640625 0.03125 C 7.128906 0.0078125 6.691406 0 6.328125 0 C 5.847656 0 5.359375 0.0078125 4.859375 0.03125 C 4.785156 0.03125 4.726562 0.00390625 4.6875 -0.046875 C 4.65625 -0.0976562 4.640625 -0.15625 4.640625 -0.21875 C 4.648438 -0.332031 4.671875 -0.40625 4.703125 -0.4375 C 4.734375 -0.46875 4.785156 -0.484375 4.859375 -0.484375 C 5.128906 -0.484375 5.320312 -0.503906 5.4375 -0.546875 C 5.550781 -0.597656 5.609375 -0.691406 5.609375 -0.828125 C 5.609375 -0.929688 5.554688 -1.117188 5.453125 -1.390625 L 5.0625 -2.390625 L 2.109375 -2.390625 C 1.910156 -1.890625 1.796875 -1.597656 1.765625 -1.515625 C 1.742188 -1.441406 1.734375 -1.398438 1.734375 -1.390625 C 1.628906 -1.085938 1.578125 -0.894531 1.578125 -0.8125 C 1.578125 -0.675781 1.632812 -0.585938 1.75 -0.546875 C 1.875 -0.503906 2.101562 -0.484375 2.4375 -0.484375 L 2.515625 -0.484375 C 2.597656 -0.484375 2.65625 -0.46875 2.6875 -0.4375 C 2.71875 -0.40625 2.734375 -0.332031 2.734375 -0.21875 C 2.734375 -0.15625 2.71875 -0.0976562 2.6875 -0.046875 C 2.65625 0.00390625 2.601562 0.03125 2.53125 0.03125 C 2.019531 0.0078125 1.585938 0 1.234375 0 C 0.972656 0 0.585938 0.0078125 0.078125 0.03125 Z M 2.34375 -2.890625 L 4.84375 -2.890625 L 3.640625 -5.96875 L 3.59375 -5.96875 Z M 2.34375 -2.890625 "/></g></g></g><g fill="#ffffff" fill-opacity="1"><g transform="translate(157.934049, 228.804052)"><g><path d="M 0.734375 0.03125 C 0.660156 0.03125 0.601562 0.00390625 0.5625 -0.046875 C 0.53125 -0.0976562 0.515625 -0.15625 0.515625 -0.21875 C 0.523438 -0.34375 0.546875 -0.414062 0.578125 -0.4375 C 0.617188 -0.46875 0.695312 -0.484375 0.8125 -0.484375 C 1.039062 -0.484375 1.207031 -0.523438 1.3125 -0.609375 C 1.425781 -0.691406 1.5 -0.789062 1.53125 -0.90625 C 1.5625 -1.03125 1.578125 -1.191406 1.578125 -1.390625 L 1.578125 -6.109375 C 1.578125 -6.316406 1.5625 -6.476562 1.53125 -6.59375 C 1.5 -6.71875 1.425781 -6.820312 1.3125 -6.90625 C 1.207031 -7 1.039062 -7.046875 0.8125 -7.046875 L 0.734375 -7.046875 C 0.660156 -7.046875 0.609375 -7.054688 0.578125 -7.078125 C 0.546875 -7.109375 0.523438 -7.179688 0.515625 -7.296875 C 0.515625 -7.367188 0.53125 -7.429688 0.5625 -7.484375 C 0.601562 -7.535156 0.660156 -7.5625 0.734375 -7.5625 C 1.242188 -7.53125 1.710938 -7.515625 2.140625 -7.515625 L 4.203125 -7.515625 C 4.804688 -7.515625 5.3125 -7.421875 5.71875 -7.234375 C 6.132812 -7.046875 6.4375 -6.804688 6.625 -6.515625 C 6.820312 -6.222656 6.921875 -5.910156 6.921875 -5.578125 C 6.921875 -5.140625 6.742188 -4.738281 6.390625 -4.375 C 6.046875 -4.007812 5.578125 -3.75 4.984375 -3.59375 L 5.1875 -3.265625 C 5.519531 -2.722656 5.820312 -2.257812 6.09375 -1.875 C 6.363281 -1.488281 6.65625 -1.128906 6.96875 -0.796875 C 7.195312 -0.617188 7.4375 -0.515625 7.6875 -0.484375 C 7.707031 -0.484375 7.742188 -0.476562 7.796875 -0.46875 C 7.847656 -0.46875 7.890625 -0.445312 7.921875 -0.40625 C 7.960938 -0.363281 7.984375 -0.300781 7.984375 -0.21875 C 7.984375 -0.15625 7.960938 -0.0976562 7.921875 -0.046875 C 7.890625 0.00390625 7.835938 0.03125 7.765625 0.03125 L 7.46875 0.03125 C 7.113281 0.0078125 6.859375 0 6.703125 0 C 6.378906 -0.0625 6.101562 -0.171875 5.875 -0.328125 C 5.65625 -0.492188 5.429688 -0.726562 5.203125 -1.03125 C 4.972656 -1.332031 4.65625 -1.828125 4.25 -2.515625 L 4.03125 -2.859375 C 3.90625 -3.046875 3.785156 -3.171875 3.671875 -3.234375 C 3.566406 -3.304688 3.378906 -3.34375 3.109375 -3.34375 L 2.765625 -3.34375 L 2.765625 -1.390625 C 2.773438 -1.191406 2.789062 -1.03125 2.8125 -0.90625 C 2.84375 -0.789062 2.910156 -0.691406 3.015625 -0.609375 C 3.128906 -0.523438 3.304688 -0.484375 3.546875 -0.484375 L 3.609375 -0.484375 C 3.679688 -0.484375 3.734375 -0.46875 3.765625 -0.4375 C 3.804688 -0.40625 3.832031 -0.332031 3.84375 -0.21875 C 3.84375 -0.15625 3.820312 -0.0976562 3.78125 -0.046875 C 3.75 0.00390625 3.695312 0.03125 3.625 0.03125 C 3.113281 0.0078125 2.617188 0 2.140625 0 C 1.710938 0 1.242188 0.0078125 0.734375 0.03125 Z M 3.8125 -3.796875 C 5 -3.796875 5.59375 -4.351562 5.59375 -5.46875 C 5.59375 -5.925781 5.4375 -6.304688 5.125 -6.609375 C 4.8125 -6.921875 4.300781 -7.078125 3.59375 -7.078125 C 3.363281 -7.078125 3.1875 -7.050781 3.0625 -7 C 2.945312 -6.945312 2.867188 -6.851562 2.828125 -6.71875 C 2.785156 -6.582031 2.765625 -6.375 2.765625 -6.09375 L 2.765625 -3.796875 Z M 3.8125 -3.796875 "/></g></g></g><g fill="#ffffff" fill-opacity="1"><g transform="translate(167.354046, 228.804052)"><g><path d="M 0.71875 0.03125 C 0.65625 0.03125 0.601562 0.00390625 0.5625 -0.046875 C 0.53125 -0.0976562 0.515625 -0.15625 0.515625 -0.21875 C 0.523438 -0.34375 0.546875 -0.414062 0.578125 -0.4375 C 0.617188 -0.46875 0.695312 -0.484375 0.8125 -0.484375 C 1.039062 -0.484375 1.207031 -0.523438 1.3125 -0.609375 C 1.425781 -0.691406 1.5 -0.789062 1.53125 -0.90625 C 1.5625 -1.03125 1.578125 -1.191406 1.578125 -1.390625 L 1.578125 -6.125 C 1.578125 -6.320312 1.5625 -6.484375 1.53125 -6.609375 C 1.5 -6.734375 1.425781 -6.835938 1.3125 -6.921875 C 1.207031 -7.003906 1.039062 -7.046875 0.8125 -7.046875 L 0.734375 -7.046875 C 0.660156 -7.046875 0.609375 -7.054688 0.578125 -7.078125 C 0.546875 -7.109375 0.523438 -7.179688 0.515625 -7.296875 C 0.515625 -7.367188 0.53125 -7.429688 0.5625 -7.484375 C 0.601562 -7.535156 0.65625 -7.5625 0.71875 -7.5625 C 1.238281 -7.53125 1.710938 -7.515625 2.140625 -7.515625 L 5.875 -7.515625 C 6.082031 -7.515625 6.1875 -7.421875 6.1875 -7.234375 L 6.21875 -5.5625 C 6.21875 -5.488281 6.179688 -5.429688 6.109375 -5.390625 C 6.046875 -5.347656 5.976562 -5.328125 5.90625 -5.328125 C 5.8125 -5.328125 5.726562 -5.34375 5.65625 -5.375 C 5.582031 -5.414062 5.539062 -5.472656 5.53125 -5.546875 C 5.46875 -5.929688 5.394531 -6.222656 5.3125 -6.421875 C 5.238281 -6.628906 5.128906 -6.78125 4.984375 -6.875 C 4.835938 -6.976562 4.628906 -7.035156 4.359375 -7.046875 L 2.765625 -7.046875 L 2.765625 -4.015625 L 4.921875 -4.015625 C 4.972656 -4.003906 5.015625 -3.972656 5.046875 -3.921875 C 5.085938 -3.867188 5.109375 -3.8125 5.109375 -3.75 C 5.109375 -3.675781 5.085938 -3.613281 5.046875 -3.5625 C 5.015625 -3.519531 4.972656 -3.5 4.921875 -3.5 L 2.765625 -3.5 L 2.765625 -1.25 C 2.785156 -1.082031 2.804688 -0.945312 2.828125 -0.84375 C 2.847656 -0.75 2.914062 -0.660156 3.03125 -0.578125 C 3.15625 -0.503906 3.34375 -0.472656 3.59375 -0.484375 L 4.703125 -0.484375 C 4.972656 -0.484375 5.179688 -0.523438 5.328125 -0.609375 C 5.472656 -0.691406 5.585938 -0.820312 5.671875 -1 C 5.753906 -1.175781 5.851562 -1.460938 5.96875 -1.859375 C 6.03125 -2.003906 6.164062 -2.0625 6.375 -2.03125 C 6.457031 -2.007812 6.523438 -1.972656 6.578125 -1.921875 C 6.640625 -1.878906 6.671875 -1.820312 6.671875 -1.75 L 6.421875 -0.25 C 6.398438 -0.144531 6.363281 -0.078125 6.3125 -0.046875 C 6.269531 -0.015625 6.191406 0 6.078125 0 L 2.140625 0 C 1.710938 0 1.238281 0.0078125 0.71875 0.03125 Z M 0.71875 0.03125 "/></g></g></g><g fill="#ffffff" fill-opacity="1"><g transform="translate(175.857258, 228.804052)"><g/></g></g><g fill="#ffffff" fill-opacity="1"><g transform="translate(179.943222, 228.804052)"><g><path d="M 0.71875 0.03125 C 0.65625 0.03125 0.601562 0.00390625 0.5625 -0.046875 C 0.53125 -0.0976562 0.515625 -0.15625 0.515625 -0.21875 C 0.523438 -0.34375 0.546875 -0.414062 0.578125 -0.4375 C 0.617188 -0.46875 0.695312 -0.484375 0.8125 -0.484375 C 1.039062 -0.484375 1.207031 -0.523438 1.3125 -0.609375 C 1.425781 -0.691406 1.5 -0.789062 1.53125 -0.90625 C 1.5625 -1.03125 1.578125 -1.191406 1.578125 -1.390625 L 1.578125 -6.125 C 1.578125 -6.320312 1.5625 -6.484375 1.53125 -6.609375 C 1.5 -6.734375 1.425781 -6.835938 1.3125 -6.921875 C 1.207031 -7.003906 1.039062 -7.046875 0.8125 -7.046875 L 0.734375 -7.046875 C 0.660156 -7.046875 0.609375 -7.054688 0.578125 -7.078125 C 0.546875 -7.109375 0.523438 -7.179688 0.515625 -7.296875 C 0.515625 -7.367188 0.53125 -7.429688 0.5625 -7.484375 C 0.601562 -7.535156 0.65625 -7.5625 0.71875 -7.5625 C 1.238281 -7.53125 1.710938 -7.515625 2.140625 -7.515625 L 4 -7.515625 C 4.757812 -7.515625 5.453125 -7.363281 6.078125 -7.0625 C 6.703125 -6.757812 7.191406 -6.320312 7.546875 -5.75 C 7.910156 -5.175781 8.09375 -4.5 8.09375 -3.71875 C 8.09375 -2.90625 7.882812 -2.21875 7.46875 -1.65625 C 7.0625 -1.101562 6.53125 -0.6875 5.875 -0.40625 C 5.226562 -0.132812 4.53125 0 3.78125 0 L 2.140625 0 C 1.710938 0 1.238281 0.0078125 0.71875 0.03125 Z M 3.953125 -0.4375 C 4.890625 -0.4375 5.570312 -0.722656 6 -1.296875 C 6.4375 -1.878906 6.65625 -2.6875 6.65625 -3.71875 C 6.65625 -4.375 6.535156 -4.957031 6.296875 -5.46875 C 6.066406 -5.976562 5.726562 -6.375 5.28125 -6.65625 C 4.832031 -6.945312 4.304688 -7.09375 3.703125 -7.09375 L 2.765625 -7.078125 L 2.765625 -1.25 C 2.765625 -0.9375 2.859375 -0.722656 3.046875 -0.609375 C 3.234375 -0.492188 3.535156 -0.4375 3.953125 -0.4375 Z M 3.953125 -0.4375 "/></g></g></g><g fill="#ffffff" fill-opacity="1"><g transform="translate(190.041877, 228.804052)"><g><path d="M 0.71875 0.03125 C 0.65625 0.03125 0.601562 0.00390625 0.5625 -0.046875 C 0.53125 -0.0976562 0.515625 -0.15625 0.515625 -0.21875 C 0.523438 -0.34375 0.546875 -0.414062 0.578125 -0.4375 C 0.617188 -0.46875 0.695312 -0.484375 0.8125 -0.484375 C 1.039062 -0.484375 1.207031 -0.523438 1.3125 -0.609375 C 1.425781 -0.691406 1.5 -0.789062 1.53125 -0.90625 C 1.5625 -1.03125 1.578125 -1.191406 1.578125 -1.390625 L 1.578125 -6.125 C 1.578125 -6.320312 1.5625 -6.484375 1.53125 -6.609375 C 1.5 -6.734375 1.425781 -6.835938 1.3125 -6.921875 C 1.207031 -7.003906 1.039062 -7.046875 0.8125 -7.046875 L 0.734375 -7.046875 C 0.660156 -7.046875 0.609375 -7.054688 0.578125 -7.078125 C 0.546875 -7.109375 0.523438 -7.179688 0.515625 -7.296875 C 0.515625 -7.367188 0.53125 -7.429688 0.5625 -7.484375 C 0.601562 -7.535156 0.65625 -7.5625 0.71875 -7.5625 C 1.238281 -7.53125 1.710938 -7.515625 2.140625 -7.515625 L 5.875 -7.515625 C 6.082031 -7.515625 6.1875 -7.421875 6.1875 -7.234375 L 6.21875 -5.5625 C 6.21875 -5.488281 6.179688 -5.429688 6.109375 -5.390625 C 6.046875 -5.347656 5.976562 -5.328125 5.90625 -5.328125 C 5.8125 -5.328125 5.726562 -5.34375 5.65625 -5.375 C 5.582031 -5.414062 5.539062 -5.472656 5.53125 -5.546875 C 5.46875 -5.929688 5.394531 -6.222656 5.3125 -6.421875 C 5.238281 -6.628906 5.128906 -6.78125 4.984375 -6.875 C 4.835938 -6.976562 4.628906 -7.035156 4.359375 -7.046875 L 2.765625 -7.046875 L 2.765625 -4.015625 L 4.921875 -4.015625 C 4.972656 -4.003906 5.015625 -3.972656 5.046875 -3.921875 C 5.085938 -3.867188 5.109375 -3.8125 5.109375 -3.75 C 5.109375 -3.675781 5.085938 -3.613281 5.046875 -3.5625 C 5.015625 -3.519531 4.972656 -3.5 4.921875 -3.5 L 2.765625 -3.5 L 2.765625 -1.25 C 2.785156 -1.082031 2.804688 -0.945312 2.828125 -0.84375 C 2.847656 -0.75 2.914062 -0.660156 3.03125 -0.578125 C 3.15625 -0.503906 3.34375 -0.472656 3.59375 -0.484375 L 4.703125 -0.484375 C 4.972656 -0.484375 5.179688 -0.523438 5.328125 -0.609375 C 5.472656 -0.691406 5.585938 -0.820312 5.671875 -1 C 5.753906 -1.175781 5.851562 -1.460938 5.96875 -1.859375 C 6.03125 -2.003906 6.164062 -2.0625 6.375 -2.03125 C 6.457031 -2.007812 6.523438 -1.972656 6.578125 -1.921875 C 6.640625 -1.878906 6.671875 -1.820312 6.671875 -1.75 L 6.421875 -0.25 C 6.398438 -0.144531 6.363281 -0.078125 6.3125 -0.046875 C 6.269531 -0.015625 6.191406 0 6.078125 0 L 2.140625 0 C 1.710938 0 1.238281 0.0078125 0.71875 0.03125 Z M 0.71875 0.03125 "/></g></g></g><g fill="#ffffff" fill-opacity="1"><g transform="translate(198.545094, 228.804052)"><g><path d="M 3.625 0.125 C 3.382812 -0.53125 3.003906 -1.566406 2.484375 -2.984375 C 1.972656 -4.410156 1.597656 -5.441406 1.359375 -6.078125 C 1.222656 -6.421875 1.09375 -6.660156 0.96875 -6.796875 C 0.84375 -6.929688 0.65625 -7.019531 0.40625 -7.0625 C 0.375 -7.070312 0.328125 -7.082031 0.265625 -7.09375 C 0.203125 -7.113281 0.160156 -7.140625 0.140625 -7.171875 C 0.117188 -7.203125 0.109375 -7.257812 0.109375 -7.34375 C 0.109375 -7.4375 0.132812 -7.5 0.1875 -7.53125 C 0.238281 -7.5625 0.316406 -7.578125 0.421875 -7.578125 C 1.023438 -7.578125 1.476562 -7.484375 1.78125 -7.296875 C 2.09375 -7.117188 2.34375 -6.796875 2.53125 -6.328125 L 4.25 -1.6875 L 4.296875 -1.6875 L 5.9375 -6.46875 C 5.988281 -6.601562 6.015625 -6.703125 6.015625 -6.765625 C 6.015625 -6.878906 5.96875 -6.953125 5.875 -6.984375 C 5.78125 -7.023438 5.625 -7.046875 5.40625 -7.046875 L 5.34375 -7.046875 C 5.257812 -7.046875 5.203125 -7.054688 5.171875 -7.078125 C 5.140625 -7.109375 5.117188 -7.179688 5.109375 -7.296875 C 5.109375 -7.367188 5.125 -7.429688 5.15625 -7.484375 C 5.195312 -7.535156 5.25 -7.5625 5.3125 -7.5625 C 5.832031 -7.53125 6.265625 -7.515625 6.609375 -7.515625 C 6.765625 -7.515625 7.054688 -7.523438 7.484375 -7.546875 L 7.734375 -7.5625 C 7.804688 -7.5625 7.859375 -7.535156 7.890625 -7.484375 C 7.929688 -7.429688 7.953125 -7.367188 7.953125 -7.296875 C 7.941406 -7.179688 7.921875 -7.109375 7.890625 -7.078125 C 7.859375 -7.054688 7.800781 -7.046875 7.71875 -7.046875 C 7.382812 -7.046875 7.125 -6.988281 6.9375 -6.875 C 6.757812 -6.769531 6.609375 -6.554688 6.484375 -6.234375 C 6.242188 -5.578125 5.859375 -4.519531 5.328125 -3.0625 C 4.804688 -1.601562 4.425781 -0.539062 4.1875 0.125 Z M 3.625 0.125 "/></g></g></g><g fill="#ffffff" fill-opacity="1"><g transform="translate(207.691246, 228.804052)"><g><path d="M 0.71875 0.03125 C 0.65625 0.03125 0.601562 0.00390625 0.5625 -0.046875 C 0.53125 -0.0976562 0.515625 -0.15625 0.515625 -0.21875 C 0.523438 -0.34375 0.546875 -0.414062 0.578125 -0.4375 C 0.617188 -0.46875 0.695312 -0.484375 0.8125 -0.484375 C 1.039062 -0.484375 1.207031 -0.523438 1.3125 -0.609375 C 1.425781 -0.691406 1.5 -0.789062 1.53125 -0.90625 C 1.5625 -1.03125 1.578125 -1.191406 1.578125 -1.390625 L 1.578125 -6.125 C 1.578125 -6.320312 1.5625 -6.484375 1.53125 -6.609375 C 1.5 -6.734375 1.425781 -6.835938 1.3125 -6.921875 C 1.207031 -7.003906 1.039062 -7.046875 0.8125 -7.046875 L 0.734375 -7.046875 C 0.660156 -7.046875 0.609375 -7.054688 0.578125 -7.078125 C 0.546875 -7.109375 0.523438 -7.179688 0.515625 -7.296875 C 0.515625 -7.367188 0.53125 -7.429688 0.5625 -7.484375 C 0.601562 -7.535156 0.65625 -7.5625 0.71875 -7.5625 C 1.238281 -7.53125 1.710938 -7.515625 2.140625 -7.515625 L 5.875 -7.515625 C 6.082031 -7.515625 6.1875 -7.421875 6.1875 -7.234375 L 6.21875 -5.5625 C 6.21875 -5.488281 6.179688 -5.429688 6.109375 -5.390625 C 6.046875 -5.347656 5.976562 -5.328125 5.90625 -5.328125 C 5.8125 -5.328125 5.726562 -5.34375 5.65625 -5.375 C 5.582031 -5.414062 5.539062 -5.472656 5.53125 -5.546875 C 5.46875 -5.929688 5.394531 -6.222656 5.3125 -6.421875 C 5.238281 -6.628906 5.128906 -6.78125 4.984375 -6.875 C 4.835938 -6.976562 4.628906 -7.035156 4.359375 -7.046875 L 2.765625 -7.046875 L 2.765625 -4.015625 L 4.921875 -4.015625 C 4.972656 -4.003906 5.015625 -3.972656 5.046875 -3.921875 C 5.085938 -3.867188 5.109375 -3.8125 5.109375 -3.75 C 5.109375 -3.675781 5.085938 -3.613281 5.046875 -3.5625 C 5.015625 -3.519531 4.972656 -3.5 4.921875 -3.5 L 2.765625 -3.5 L 2.765625 -1.25 C 2.785156 -1.082031 2.804688 -0.945312 2.828125 -0.84375 C 2.847656 -0.75 2.914062 -0.660156 3.03125 -0.578125 C 3.15625 -0.503906 3.34375 -0.472656 3.59375 -0.484375 L 4.703125 -0.484375 C 4.972656 -0.484375 5.179688 -0.523438 5.328125 -0.609375 C 5.472656 -0.691406 5.585938 -0.820312 5.671875 -1 C 5.753906 -1.175781 5.851562 -1.460938 5.96875 -1.859375 C 6.03125 -2.003906 6.164062 -2.0625 6.375 -2.03125 C 6.457031 -2.007812 6.523438 -1.972656 6.578125 -1.921875 C 6.640625 -1.878906 6.671875 -1.820312 6.671875 -1.75 L 6.421875 -0.25 C 6.398438 -0.144531 6.363281 -0.078125 6.3125 -0.046875 C 6.269531 -0.015625 6.191406 0 6.078125 0 L 2.140625 0 C 1.710938 0 1.238281 0.0078125 0.71875 0.03125 Z M 0.71875 0.03125 "/></g></g></g><g fill="#ffffff" fill-opacity="1"><g transform="translate(216.194457, 228.804052)"><g><path d="M 0.71875 0.03125 C 0.65625 0.03125 0.601562 0.00390625 0.5625 -0.046875 C 0.53125 -0.0976562 0.515625 -0.15625 0.515625 -0.21875 C 0.523438 -0.34375 0.546875 -0.414062 0.578125 -0.4375 C 0.617188 -0.46875 0.695312 -0.484375 0.8125 -0.484375 C 1.039062 -0.484375 1.207031 -0.523438 1.3125 -0.609375 C 1.425781 -0.691406 1.5 -0.789062 1.53125 -0.90625 C 1.5625 -1.03125 1.578125 -1.191406 1.578125 -1.390625 L 1.578125 -6.125 C 1.578125 -6.320312 1.5625 -6.484375 1.53125 -6.609375 C 1.5 -6.734375 1.425781 -6.835938 1.3125 -6.921875 C 1.207031 -7.003906 1.039062 -7.046875 0.8125 -7.046875 L 0.734375 -7.046875 C 0.660156 -7.046875 0.609375 -7.054688 0.578125 -7.078125 C 0.546875 -7.109375 0.523438 -7.179688 0.515625 -7.296875 C 0.515625 -7.367188 0.53125 -7.429688 0.5625 -7.484375 C 0.601562 -7.535156 0.65625 -7.5625 0.71875 -7.5625 C 1.238281 -7.53125 1.710938 -7.515625 2.140625 -7.515625 C 2.609375 -7.515625 3.101562 -7.53125 3.625 -7.5625 C 3.695312 -7.5625 3.75 -7.535156 3.78125 -7.484375 C 3.820312 -7.429688 3.84375 -7.367188 3.84375 -7.296875 C 3.832031 -7.179688 3.804688 -7.109375 3.765625 -7.078125 C 3.722656 -7.054688 3.648438 -7.046875 3.546875 -7.046875 C 3.304688 -7.046875 3.128906 -7.003906 3.015625 -6.921875 C 2.910156 -6.835938 2.84375 -6.734375 2.8125 -6.609375 C 2.789062 -6.484375 2.773438 -6.320312 2.765625 -6.125 L 2.765625 -1.21875 C 2.785156 -1.050781 2.804688 -0.921875 2.828125 -0.828125 C 2.847656 -0.734375 2.914062 -0.648438 3.03125 -0.578125 C 3.15625 -0.503906 3.34375 -0.472656 3.59375 -0.484375 L 4.671875 -0.484375 C 4.953125 -0.484375 5.160156 -0.523438 5.296875 -0.609375 C 5.441406 -0.691406 5.554688 -0.820312 5.640625 -1 C 5.722656 -1.175781 5.828125 -1.460938 5.953125 -1.859375 C 6.003906 -2.003906 6.140625 -2.0625 6.359375 -2.03125 C 6.429688 -2.007812 6.5 -1.972656 6.5625 -1.921875 C 6.625 -1.878906 6.648438 -1.820312 6.640625 -1.75 L 6.40625 -0.25 C 6.375 -0.144531 6.332031 -0.078125 6.28125 -0.046875 C 6.238281 -0.015625 6.164062 0 6.0625 0 L 2.140625 0 C 1.710938 0 1.238281 0.0078125 0.71875 0.03125 Z M 0.71875 0.03125 "/></g></g></g><g fill="#ffffff" fill-opacity="1"><g transform="translate(224.423823, 228.804052)"><g><path d="M 4.359375 0.234375 C 3.609375 0.234375 2.941406 0.0546875 2.359375 -0.296875 C 1.785156 -0.660156 1.34375 -1.140625 1.03125 -1.734375 C 0.71875 -2.335938 0.5625 -2.976562 0.5625 -3.65625 C 0.5625 -4.488281 0.75 -5.210938 1.125 -5.828125 C 1.5 -6.453125 1.976562 -6.929688 2.5625 -7.265625 C 3.15625 -7.597656 3.753906 -7.765625 4.359375 -7.765625 C 5.128906 -7.765625 5.804688 -7.582031 6.390625 -7.21875 C 6.972656 -6.851562 7.421875 -6.375 7.734375 -5.78125 C 8.046875 -5.195312 8.203125 -4.5625 8.203125 -3.875 C 8.203125 -3.039062 8.007812 -2.3125 7.625 -1.6875 C 7.25 -1.0625 6.757812 -0.582031 6.15625 -0.25 C 5.5625 0.0703125 4.960938 0.234375 4.359375 0.234375 Z M 4.34375 -0.28125 C 4.882812 -0.28125 5.335938 -0.441406 5.703125 -0.765625 C 6.066406 -1.085938 6.335938 -1.519531 6.515625 -2.0625 C 6.691406 -2.613281 6.78125 -3.21875 6.78125 -3.875 C 6.78125 -4.488281 6.6875 -5.050781 6.5 -5.5625 C 6.320312 -6.070312 6.050781 -6.476562 5.6875 -6.78125 C 5.320312 -7.09375 4.875 -7.25 4.34375 -7.25 C 3.550781 -7.25 2.953125 -6.910156 2.546875 -6.234375 C 2.148438 -5.566406 1.953125 -4.722656 1.953125 -3.703125 C 1.953125 -3.078125 2.039062 -2.503906 2.21875 -1.984375 C 2.394531 -1.472656 2.660156 -1.0625 3.015625 -0.75 C 3.378906 -0.4375 3.820312 -0.28125 4.34375 -0.28125 Z M 4.34375 -0.28125 "/></g></g></g><g fill="#ffffff" fill-opacity="1"><g transform="translate(234.605825, 228.804052)"><g><path d="M 0.71875 0.03125 C 0.65625 0.03125 0.601562 0.00390625 0.5625 -0.046875 C 0.519531 -0.0976562 0.5 -0.15625 0.5 -0.21875 C 0.507812 -0.34375 0.535156 -0.414062 0.578125 -0.4375 C 0.617188 -0.46875 0.695312 -0.484375 0.8125 -0.484375 C 1.039062 -0.484375 1.207031 -0.523438 1.3125 -0.609375 C 1.425781 -0.691406 1.5 -0.789062 1.53125 -0.90625 C 1.5625 -1.03125 1.578125 -1.191406 1.578125 -1.390625 L 1.578125 -6.125 C 1.578125 -6.320312 1.5625 -6.484375 1.53125 -6.609375 C 1.5 -6.734375 1.425781 -6.835938 1.3125 -6.921875 C 1.207031 -7.003906 1.039062 -7.046875 0.8125 -7.046875 L 0.734375 -7.046875 C 0.660156 -7.046875 0.601562 -7.054688 0.5625 -7.078125 C 0.53125 -7.109375 0.507812 -7.179688 0.5 -7.296875 C 0.5 -7.367188 0.519531 -7.429688 0.5625 -7.484375 C 0.601562 -7.535156 0.65625 -7.5625 0.71875 -7.5625 C 1.226562 -7.53125 1.703125 -7.515625 2.140625 -7.515625 L 3.9375 -7.515625 C 4.625 -7.515625 5.289062 -7.375 5.9375 -7.09375 C 6.59375 -6.8125 6.921875 -6.238281 6.921875 -5.375 C 6.921875 -4.894531 6.773438 -4.46875 6.484375 -4.09375 C 6.203125 -3.726562 5.832031 -3.441406 5.375 -3.234375 C 4.914062 -3.023438 4.441406 -2.921875 3.953125 -2.921875 C 3.492188 -2.921875 3.09375 -2.984375 2.75 -3.109375 L 2.75 -1.390625 C 2.757812 -1.191406 2.773438 -1.03125 2.796875 -0.90625 C 2.828125 -0.789062 2.898438 -0.691406 3.015625 -0.609375 C 3.128906 -0.523438 3.300781 -0.484375 3.53125 -0.484375 L 3.59375 -0.484375 C 3.675781 -0.484375 3.734375 -0.46875 3.765625 -0.4375 C 3.804688 -0.40625 3.832031 -0.332031 3.84375 -0.21875 C 3.84375 -0.15625 3.820312 -0.0976562 3.78125 -0.046875 C 3.75 0.00390625 3.695312 0.03125 3.625 0.03125 C 3.113281 0.0078125 2.617188 0 2.140625 0 C 1.703125 0 1.226562 0.0078125 0.71875 0.03125 Z M 3.59375 -3.453125 C 3.882812 -3.453125 4.179688 -3.507812 4.484375 -3.625 C 4.796875 -3.738281 5.054688 -3.9375 5.265625 -4.21875 C 5.484375 -4.507812 5.59375 -4.882812 5.59375 -5.34375 C 5.59375 -6.039062 5.367188 -6.503906 4.921875 -6.734375 C 4.472656 -6.960938 4 -7.078125 3.5 -7.078125 C 3.289062 -7.078125 3.132812 -7.054688 3.03125 -7.015625 C 2.9375 -6.972656 2.863281 -6.882812 2.8125 -6.75 C 2.769531 -6.625 2.75 -6.425781 2.75 -6.15625 L 2.75 -3.59375 C 2.945312 -3.5 3.226562 -3.453125 3.59375 -3.453125 Z M 3.59375 -3.453125 "/></g></g></g><g fill="#ffffff" fill-opacity="1"><g transform="translate(243.228101, 228.804052)"><g><path d="M 5.109375 0.0625 C 4.984375 0.0625 4.898438 0.0195312 4.859375 -0.0625 L 2.171875 -6.125 L 2.140625 -6.125 L 2.15625 -1.390625 C 2.164062 -1.179688 2.179688 -1.019531 2.203125 -0.90625 C 2.222656 -0.789062 2.285156 -0.691406 2.390625 -0.609375 C 2.503906 -0.523438 2.675781 -0.484375 2.90625 -0.484375 L 2.984375 -0.484375 C 3.054688 -0.484375 3.109375 -0.46875 3.140625 -0.4375 C 3.179688 -0.40625 3.207031 -0.332031 3.21875 -0.21875 C 3.21875 -0.15625 3.195312 -0.0976562 3.15625 -0.046875 C 3.125 0.00390625 3.070312 0.03125 3 0.03125 L 2.703125 0.03125 C 2.335938 0.0078125 2.078125 0 1.921875 0 C 1.648438 0 1.253906 0.0078125 0.734375 0.03125 C 0.660156 0.03125 0.609375 0.00390625 0.578125 -0.046875 C 0.546875 -0.0976562 0.53125 -0.15625 0.53125 -0.21875 C 0.53125 -0.34375 0.550781 -0.414062 0.59375 -0.4375 C 0.632812 -0.46875 0.710938 -0.484375 0.828125 -0.484375 C 1.054688 -0.484375 1.222656 -0.523438 1.328125 -0.609375 C 1.429688 -0.691406 1.492188 -0.789062 1.515625 -0.90625 C 1.546875 -1.019531 1.566406 -1.179688 1.578125 -1.390625 L 1.59375 -6.125 C 1.59375 -6.375 1.566406 -6.554688 1.515625 -6.671875 C 1.460938 -6.796875 1.378906 -6.882812 1.265625 -6.9375 C 1.160156 -6.988281 1.003906 -7.035156 0.796875 -7.078125 C 0.765625 -7.085938 0.71875 -7.097656 0.65625 -7.109375 C 0.59375 -7.117188 0.550781 -7.140625 0.53125 -7.171875 C 0.507812 -7.210938 0.5 -7.273438 0.5 -7.359375 C 0.5 -7.453125 0.523438 -7.515625 0.578125 -7.546875 C 0.628906 -7.578125 0.710938 -7.59375 0.828125 -7.59375 C 1.296875 -7.59375 1.679688 -7.5625 1.984375 -7.5 C 2.285156 -7.445312 2.546875 -7.328125 2.765625 -7.140625 C 2.992188 -6.953125 3.1875 -6.679688 3.34375 -6.328125 L 5.390625 -1.734375 L 5.421875 -1.734375 L 7.765625 -7.515625 L 8.453125 -7.515625 C 8.890625 -7.515625 9.363281 -7.53125 9.875 -7.5625 C 9.945312 -7.5625 10 -7.535156 10.03125 -7.484375 C 10.0625 -7.429688 10.078125 -7.367188 10.078125 -7.296875 C 10.078125 -7.179688 10.050781 -7.109375 10 -7.078125 C 9.957031 -7.054688 9.882812 -7.046875 9.78125 -7.046875 C 9.550781 -7.046875 9.378906 -7.003906 9.265625 -6.921875 C 9.160156 -6.835938 9.09375 -6.734375 9.0625 -6.609375 C 9.039062 -6.484375 9.023438 -6.320312 9.015625 -6.125 L 9.015625 -1.390625 C 9.023438 -1.191406 9.039062 -1.03125 9.0625 -0.90625 C 9.09375 -0.789062 9.160156 -0.691406 9.265625 -0.609375 C 9.378906 -0.523438 9.550781 -0.484375 9.78125 -0.484375 L 9.859375 -0.484375 C 9.929688 -0.484375 9.984375 -0.46875 10.015625 -0.4375 C 10.054688 -0.40625 10.078125 -0.332031 10.078125 -0.21875 C 10.078125 -0.15625 10.0625 -0.0976562 10.03125 -0.046875 C 10 0.00390625 9.945312 0.03125 9.875 0.03125 C 9.363281 0.0078125 8.882812 0 8.4375 0 C 7.976562 0 7.488281 0.0078125 6.96875 0.03125 C 6.894531 0.03125 6.84375 0.00390625 6.8125 -0.046875 C 6.78125 -0.0976562 6.765625 -0.15625 6.765625 -0.21875 C 6.765625 -0.34375 6.785156 -0.414062 6.828125 -0.4375 C 6.867188 -0.46875 6.945312 -0.484375 7.0625 -0.484375 C 7.289062 -0.484375 7.457031 -0.523438 7.5625 -0.609375 C 7.675781 -0.691406 7.75 -0.789062 7.78125 -0.90625 C 7.8125 -1.03125 7.828125 -1.191406 7.828125 -1.390625 L 7.828125 -6.125 L 7.796875 -6.125 L 5.34375 -0.0625 C 5.3125 0.0195312 5.234375 0.0625 5.109375 0.0625 Z M 5.109375 0.0625 "/></g></g></g><g fill="#ffffff" fill-opacity="1"><g transform="translate(255.243675, 228.804052)"><g><path d="M 0.71875 0.03125 C 0.65625 0.03125 0.601562 0.00390625 0.5625 -0.046875 C 0.53125 -0.0976562 0.515625 -0.15625 0.515625 -0.21875 C 0.523438 -0.34375 0.546875 -0.414062 0.578125 -0.4375 C 0.617188 -0.46875 0.695312 -0.484375 0.8125 -0.484375 C 1.039062 -0.484375 1.207031 -0.523438 1.3125 -0.609375 C 1.425781 -0.691406 1.5 -0.789062 1.53125 -0.90625 C 1.5625 -1.03125 1.578125 -1.191406 1.578125 -1.390625 L 1.578125 -6.125 C 1.578125 -6.320312 1.5625 -6.484375 1.53125 -6.609375 C 1.5 -6.734375 1.425781 -6.835938 1.3125 -6.921875 C 1.207031 -7.003906 1.039062 -7.046875 0.8125 -7.046875 L 0.734375 -7.046875 C 0.660156 -7.046875 0.609375 -7.054688 0.578125 -7.078125 C 0.546875 -7.109375 0.523438 -7.179688 0.515625 -7.296875 C 0.515625 -7.367188 0.53125 -7.429688 0.5625 -7.484375 C 0.601562 -7.535156 0.65625 -7.5625 0.71875 -7.5625 C 1.238281 -7.53125 1.710938 -7.515625 2.140625 -7.515625 L 5.875 -7.515625 C 6.082031 -7.515625 6.1875 -7.421875 6.1875 -7.234375 L 6.21875 -5.5625 C 6.21875 -5.488281 6.179688 -5.429688 6.109375 -5.390625 C 6.046875 -5.347656 5.976562 -5.328125 5.90625 -5.328125 C 5.8125 -5.328125 5.726562 -5.34375 5.65625 -5.375 C 5.582031 -5.414062 5.539062 -5.472656 5.53125 -5.546875 C 5.46875 -5.929688 5.394531 -6.222656 5.3125 -6.421875 C 5.238281 -6.628906 5.128906 -6.78125 4.984375 -6.875 C 4.835938 -6.976562 4.628906 -7.035156 4.359375 -7.046875 L 2.765625 -7.046875 L 2.765625 -4.015625 L 4.921875 -4.015625 C 4.972656 -4.003906 5.015625 -3.972656 5.046875 -3.921875 C 5.085938 -3.867188 5.109375 -3.8125 5.109375 -3.75 C 5.109375 -3.675781 5.085938 -3.613281 5.046875 -3.5625 C 5.015625 -3.519531 4.972656 -3.5 4.921875 -3.5 L 2.765625 -3.5 L 2.765625 -1.25 C 2.785156 -1.082031 2.804688 -0.945312 2.828125 -0.84375 C 2.847656 -0.75 2.914062 -0.660156 3.03125 -0.578125 C 3.15625 -0.503906 3.34375 -0.472656 3.59375 -0.484375 L 4.703125 -0.484375 C 4.972656 -0.484375 5.179688 -0.523438 5.328125 -0.609375 C 5.472656 -0.691406 5.585938 -0.820312 5.671875 -1 C 5.753906 -1.175781 5.851562 -1.460938 5.96875 -1.859375 C 6.03125 -2.003906 6.164062 -2.0625 6.375 -2.03125 C 6.457031 -2.007812 6.523438 -1.972656 6.578125 -1.921875 C 6.640625 -1.878906 6.671875 -1.820312 6.671875 -1.75 L 6.421875 -0.25 C 6.398438 -0.144531 6.363281 -0.078125 6.3125 -0.046875 C 6.269531 -0.015625 6.191406 0 6.078125 0 L 2.140625 0 C 1.710938 0 1.238281 0.0078125 0.71875 0.03125 Z M 0.71875 0.03125 "/></g></g></g><g fill="#ffffff" fill-opacity="1"><g transform="translate(263.746887, 228.804052)"><g><path d="M 0.734375 0.03125 C 0.660156 0.03125 0.609375 0.00390625 0.578125 -0.046875 C 0.546875 -0.0976562 0.53125 -0.15625 0.53125 -0.21875 C 0.53125 -0.34375 0.550781 -0.414062 0.59375 -0.4375 C 0.632812 -0.46875 0.710938 -0.484375 0.828125 -0.484375 C 1.054688 -0.484375 1.222656 -0.523438 1.328125 -0.609375 C 1.429688 -0.691406 1.492188 -0.789062 1.515625 -0.90625 C 1.546875 -1.019531 1.566406 -1.179688 1.578125 -1.390625 L 1.59375 -6.125 C 1.59375 -6.363281 1.566406 -6.546875 1.515625 -6.671875 C 1.460938 -6.796875 1.378906 -6.882812 1.265625 -6.9375 C 1.160156 -6.988281 1.003906 -7.035156 0.796875 -7.078125 C 0.660156 -7.109375 0.578125 -7.132812 0.546875 -7.15625 C 0.515625 -7.175781 0.5 -7.242188 0.5 -7.359375 C 0.5 -7.453125 0.523438 -7.515625 0.578125 -7.546875 C 0.628906 -7.578125 0.710938 -7.59375 0.828125 -7.59375 C 1.316406 -7.59375 1.703125 -7.554688 1.984375 -7.484375 C 2.273438 -7.421875 2.53125 -7.300781 2.75 -7.125 C 2.96875 -6.945312 3.207031 -6.679688 3.46875 -6.328125 L 6.734375 -2.03125 L 6.765625 -2.03125 L 6.75 -6.125 C 6.738281 -6.34375 6.722656 -6.507812 6.703125 -6.625 C 6.679688 -6.738281 6.613281 -6.835938 6.5 -6.921875 C 6.394531 -7.003906 6.226562 -7.046875 6 -7.046875 L 5.921875 -7.046875 C 5.847656 -7.046875 5.789062 -7.054688 5.75 -7.078125 C 5.71875 -7.109375 5.695312 -7.179688 5.6875 -7.296875 C 5.6875 -7.367188 5.707031 -7.429688 5.75 -7.484375 C 5.789062 -7.535156 5.84375 -7.5625 5.90625 -7.5625 C 6.414062 -7.53125 6.796875 -7.515625 7.046875 -7.515625 C 7.191406 -7.515625 7.484375 -7.523438 7.921875 -7.546875 L 8.171875 -7.5625 C 8.242188 -7.5625 8.296875 -7.535156 8.328125 -7.484375 C 8.359375 -7.429688 8.375 -7.367188 8.375 -7.296875 C 8.375 -7.179688 8.351562 -7.109375 8.3125 -7.078125 C 8.269531 -7.054688 8.191406 -7.046875 8.078125 -7.046875 C 7.847656 -7.046875 7.679688 -7.003906 7.578125 -6.921875 C 7.472656 -6.835938 7.40625 -6.738281 7.375 -6.625 C 7.351562 -6.507812 7.335938 -6.34375 7.328125 -6.125 L 7.3125 -0.125 C 7.300781 -0.0195312 7.203125 0.03125 7.015625 0.03125 C 6.859375 0.03125 6.742188 -0.0195312 6.671875 -0.125 L 2.171875 -6.125 L 2.140625 -6.125 L 2.15625 -1.390625 C 2.164062 -1.179688 2.179688 -1.019531 2.203125 -0.90625 C 2.222656 -0.789062 2.285156 -0.691406 2.390625 -0.609375 C 2.503906 -0.523438 2.675781 -0.484375 2.90625 -0.484375 L 2.984375 -0.484375 C 3.054688 -0.484375 3.109375 -0.46875 3.140625 -0.4375 C 3.179688 -0.40625 3.207031 -0.332031 3.21875 -0.21875 C 3.21875 -0.15625 3.195312 -0.0976562 3.15625 -0.046875 C 3.125 0.00390625 3.070312 0.03125 3 0.03125 C 2.488281 0.0078125 2.101562 0 1.84375 0 C 1.6875 0 1.410156 0.0078125 1.015625 0.03125 Z M 0.734375 0.03125 "/></g></g></g><g fill="#ffffff" fill-opacity="1"><g transform="translate(273.952704, 228.804052)"><g><path d="M 2.140625 0.03125 C 2.066406 0.03125 2.007812 0.00390625 1.96875 -0.046875 C 1.9375 -0.0976562 1.921875 -0.15625 1.921875 -0.21875 C 1.929688 -0.34375 1.953125 -0.414062 1.984375 -0.4375 C 2.023438 -0.46875 2.101562 -0.484375 2.21875 -0.484375 C 2.445312 -0.484375 2.613281 -0.523438 2.71875 -0.609375 C 2.832031 -0.691406 2.90625 -0.789062 2.9375 -0.90625 C 2.96875 -1.03125 2.988281 -1.191406 3 -1.390625 L 3 -7.078125 L 2.171875 -7.078125 C 1.898438 -7.066406 1.691406 -7.007812 1.546875 -6.90625 C 1.398438 -6.800781 1.285156 -6.640625 1.203125 -6.421875 C 1.128906 -6.210938 1.066406 -5.914062 1.015625 -5.53125 C 1.003906 -5.46875 0.953125 -5.414062 0.859375 -5.375 C 0.773438 -5.332031 0.6875 -5.3125 0.59375 -5.3125 C 0.519531 -5.3125 0.453125 -5.332031 0.390625 -5.375 C 0.335938 -5.425781 0.3125 -5.488281 0.3125 -5.5625 L 0.34375 -7.234375 C 0.34375 -7.421875 0.453125 -7.515625 0.671875 -7.515625 L 6.5 -7.515625 C 6.707031 -7.515625 6.8125 -7.421875 6.8125 -7.234375 L 6.859375 -5.5625 C 6.859375 -5.488281 6.828125 -5.425781 6.765625 -5.375 C 6.703125 -5.332031 6.632812 -5.3125 6.5625 -5.3125 C 6.457031 -5.3125 6.363281 -5.332031 6.28125 -5.375 C 6.195312 -5.414062 6.15625 -5.46875 6.15625 -5.53125 C 6.09375 -5.925781 6.023438 -6.226562 5.953125 -6.4375 C 5.878906 -6.644531 5.765625 -6.800781 5.609375 -6.90625 C 5.460938 -7.007812 5.253906 -7.066406 4.984375 -7.078125 L 4.171875 -7.078125 L 4.171875 -1.390625 C 4.179688 -1.191406 4.195312 -1.03125 4.21875 -0.90625 C 4.25 -0.789062 4.320312 -0.691406 4.4375 -0.609375 C 4.550781 -0.523438 4.722656 -0.484375 4.953125 -0.484375 L 5.015625 -0.484375 C 5.085938 -0.484375 5.140625 -0.46875 5.171875 -0.4375 C 5.210938 -0.40625 5.238281 -0.332031 5.25 -0.21875 C 5.25 -0.15625 5.226562 -0.0976562 5.1875 -0.046875 C 5.15625 0.00390625 5.101562 0.03125 5.03125 0.03125 C 4.519531 0.0078125 4.050781 0 3.625 0 C 3.144531 0 2.648438 0.0078125 2.140625 0.03125 Z M 2.140625 0.03125 "/></g></g></g><g fill="#ffffff" fill-opacity="1"><g transform="translate(130.48293, 249.054051)"><g><path d="M 0.078125 0.03125 C 0.00390625 0.03125 -0.046875 0.00390625 -0.078125 -0.046875 C -0.117188 -0.0976562 -0.140625 -0.15625 -0.140625 -0.21875 C -0.128906 -0.34375 -0.101562 -0.414062 -0.0625 -0.4375 C -0.03125 -0.46875 0.0078125 -0.484375 0.0625 -0.484375 C 0.125 -0.484375 0.160156 -0.484375 0.171875 -0.484375 C 0.410156 -0.484375 0.585938 -0.539062 0.703125 -0.65625 C 0.816406 -0.78125 0.90625 -0.921875 0.96875 -1.078125 C 1.039062 -1.234375 1.085938 -1.335938 1.109375 -1.390625 L 3.1875 -6.328125 C 3.238281 -6.453125 3.265625 -6.546875 3.265625 -6.609375 C 3.265625 -6.753906 3.207031 -6.859375 3.09375 -6.921875 C 2.988281 -6.984375 2.835938 -7.035156 2.640625 -7.078125 C 2.503906 -7.109375 2.421875 -7.132812 2.390625 -7.15625 C 2.359375 -7.175781 2.34375 -7.242188 2.34375 -7.359375 C 2.34375 -7.453125 2.363281 -7.515625 2.40625 -7.546875 C 2.457031 -7.578125 2.539062 -7.59375 2.65625 -7.59375 C 3.050781 -7.59375 3.363281 -7.5625 3.59375 -7.5 C 3.832031 -7.445312 4.039062 -7.328125 4.21875 -7.140625 C 4.394531 -6.960938 4.554688 -6.691406 4.703125 -6.328125 L 6.71875 -1.390625 C 6.832031 -1.085938 6.941406 -0.859375 7.046875 -0.703125 C 7.160156 -0.554688 7.332031 -0.484375 7.5625 -0.484375 L 7.625 -0.484375 C 7.707031 -0.484375 7.765625 -0.46875 7.796875 -0.4375 C 7.828125 -0.40625 7.847656 -0.332031 7.859375 -0.21875 C 7.859375 -0.15625 7.835938 -0.0976562 7.796875 -0.046875 C 7.765625 0.00390625 7.710938 0.03125 7.640625 0.03125 C 7.128906 0.0078125 6.691406 0 6.328125 0 C 5.847656 0 5.359375 0.0078125 4.859375 0.03125 C 4.785156 0.03125 4.726562 0.00390625 4.6875 -0.046875 C 4.65625 -0.0976562 4.640625 -0.15625 4.640625 -0.21875 C 4.648438 -0.332031 4.671875 -0.40625 4.703125 -0.4375 C 4.734375 -0.46875 4.785156 -0.484375 4.859375 -0.484375 C 5.128906 -0.484375 5.320312 -0.503906 5.4375 -0.546875 C 5.550781 -0.597656 5.609375 -0.691406 5.609375 -0.828125 C 5.609375 -0.929688 5.554688 -1.117188 5.453125 -1.390625 L 5.0625 -2.390625 L 2.109375 -2.390625 C 1.910156 -1.890625 1.796875 -1.597656 1.765625 -1.515625 C 1.742188 -1.441406 1.734375 -1.398438 1.734375 -1.390625 C 1.628906 -1.085938 1.578125 -0.894531 1.578125 -0.8125 C 1.578125 -0.675781 1.632812 -0.585938 1.75 -0.546875 C 1.875 -0.503906 2.101562 -0.484375 2.4375 -0.484375 L 2.515625 -0.484375 C 2.597656 -0.484375 2.65625 -0.46875 2.6875 -0.4375 C 2.71875 -0.40625 2.734375 -0.332031 2.734375 -0.21875 C 2.734375 -0.15625 2.71875 -0.0976562 2.6875 -0.046875 C 2.65625 0.00390625 2.601562 0.03125 2.53125 0.03125 C 2.019531 0.0078125 1.585938 0 1.234375 0 C 0.972656 0 0.585938 0.0078125 0.078125 0.03125 Z M 2.34375 -2.890625 L 4.84375 -2.890625 L 3.640625 -5.96875 L 3.59375 -5.96875 Z M 2.34375 -2.890625 "/></g></g></g><g fill="#ffffff" fill-opacity="1"><g transform="translate(139.688615, 249.054051)"><g><path d="M 0.734375 0.03125 C 0.660156 0.03125 0.609375 0.00390625 0.578125 -0.046875 C 0.546875 -0.0976562 0.53125 -0.15625 0.53125 -0.21875 C 0.53125 -0.34375 0.550781 -0.414062 0.59375 -0.4375 C 0.632812 -0.46875 0.710938 -0.484375 0.828125 -0.484375 C 1.054688 -0.484375 1.222656 -0.523438 1.328125 -0.609375 C 1.429688 -0.691406 1.492188 -0.789062 1.515625 -0.90625 C 1.546875 -1.019531 1.566406 -1.179688 1.578125 -1.390625 L 1.59375 -6.125 C 1.59375 -6.363281 1.566406 -6.546875 1.515625 -6.671875 C 1.460938 -6.796875 1.378906 -6.882812 1.265625 -6.9375 C 1.160156 -6.988281 1.003906 -7.035156 0.796875 -7.078125 C 0.660156 -7.109375 0.578125 -7.132812 0.546875 -7.15625 C 0.515625 -7.175781 0.5 -7.242188 0.5 -7.359375 C 0.5 -7.453125 0.523438 -7.515625 0.578125 -7.546875 C 0.628906 -7.578125 0.710938 -7.59375 0.828125 -7.59375 C 1.316406 -7.59375 1.703125 -7.554688 1.984375 -7.484375 C 2.273438 -7.421875 2.53125 -7.300781 2.75 -7.125 C 2.96875 -6.945312 3.207031 -6.679688 3.46875 -6.328125 L 6.734375 -2.03125 L 6.765625 -2.03125 L 6.75 -6.125 C 6.738281 -6.34375 6.722656 -6.507812 6.703125 -6.625 C 6.679688 -6.738281 6.613281 -6.835938 6.5 -6.921875 C 6.394531 -7.003906 6.226562 -7.046875 6 -7.046875 L 5.921875 -7.046875 C 5.847656 -7.046875 5.789062 -7.054688 5.75 -7.078125 C 5.71875 -7.109375 5.695312 -7.179688 5.6875 -7.296875 C 5.6875 -7.367188 5.707031 -7.429688 5.75 -7.484375 C 5.789062 -7.535156 5.84375 -7.5625 5.90625 -7.5625 C 6.414062 -7.53125 6.796875 -7.515625 7.046875 -7.515625 C 7.191406 -7.515625 7.484375 -7.523438 7.921875 -7.546875 L 8.171875 -7.5625 C 8.242188 -7.5625 8.296875 -7.535156 8.328125 -7.484375 C 8.359375 -7.429688 8.375 -7.367188 8.375 -7.296875 C 8.375 -7.179688 8.351562 -7.109375 8.3125 -7.078125 C 8.269531 -7.054688 8.191406 -7.046875 8.078125 -7.046875 C 7.847656 -7.046875 7.679688 -7.003906 7.578125 -6.921875 C 7.472656 -6.835938 7.40625 -6.738281 7.375 -6.625 C 7.351562 -6.507812 7.335938 -6.34375 7.328125 -6.125 L 7.3125 -0.125 C 7.300781 -0.0195312 7.203125 0.03125 7.015625 0.03125 C 6.859375 0.03125 6.742188 -0.0195312 6.671875 -0.125 L 2.171875 -6.125 L 2.140625 -6.125 L 2.15625 -1.390625 C 2.164062 -1.179688 2.179688 -1.019531 2.203125 -0.90625 C 2.222656 -0.789062 2.285156 -0.691406 2.390625 -0.609375 C 2.503906 -0.523438 2.675781 -0.484375 2.90625 -0.484375 L 2.984375 -0.484375 C 3.054688 -0.484375 3.109375 -0.46875 3.140625 -0.4375 C 3.179688 -0.40625 3.207031 -0.332031 3.21875 -0.21875 C 3.21875 -0.15625 3.195312 -0.0976562 3.15625 -0.046875 C 3.125 0.00390625 3.070312 0.03125 3 0.03125 C 2.488281 0.0078125 2.101562 0 1.84375 0 C 1.6875 0 1.410156 0.0078125 1.015625 0.03125 Z M 0.734375 0.03125 "/></g></g></g><g fill="#ffffff" fill-opacity="1"><g transform="translate(149.894434, 249.054051)"><g><path d="M 0.71875 0.03125 C 0.65625 0.03125 0.601562 0.00390625 0.5625 -0.046875 C 0.53125 -0.0976562 0.515625 -0.15625 0.515625 -0.21875 C 0.523438 -0.34375 0.546875 -0.414062 0.578125 -0.4375 C 0.617188 -0.46875 0.695312 -0.484375 0.8125 -0.484375 C 1.039062 -0.484375 1.207031 -0.523438 1.3125 -0.609375 C 1.425781 -0.691406 1.5 -0.789062 1.53125 -0.90625 C 1.5625 -1.03125 1.578125 -1.191406 1.578125 -1.390625 L 1.578125 -6.125 C 1.578125 -6.320312 1.5625 -6.484375 1.53125 -6.609375 C 1.5 -6.734375 1.425781 -6.835938 1.3125 -6.921875 C 1.207031 -7.003906 1.039062 -7.046875 0.8125 -7.046875 L 0.734375 -7.046875 C 0.660156 -7.046875 0.609375 -7.054688 0.578125 -7.078125 C 0.546875 -7.109375 0.523438 -7.179688 0.515625 -7.296875 C 0.515625 -7.367188 0.53125 -7.429688 0.5625 -7.484375 C 0.601562 -7.535156 0.65625 -7.5625 0.71875 -7.5625 C 1.238281 -7.53125 1.710938 -7.515625 2.140625 -7.515625 L 4 -7.515625 C 4.757812 -7.515625 5.453125 -7.363281 6.078125 -7.0625 C 6.703125 -6.757812 7.191406 -6.320312 7.546875 -5.75 C 7.910156 -5.175781 8.09375 -4.5 8.09375 -3.71875 C 8.09375 -2.90625 7.882812 -2.21875 7.46875 -1.65625 C 7.0625 -1.101562 6.53125 -0.6875 5.875 -0.40625 C 5.226562 -0.132812 4.53125 0 3.78125 0 L 2.140625 0 C 1.710938 0 1.238281 0.0078125 0.71875 0.03125 Z M 3.953125 -0.4375 C 4.890625 -0.4375 5.570312 -0.722656 6 -1.296875 C 6.4375 -1.878906 6.65625 -2.6875 6.65625 -3.71875 C 6.65625 -4.375 6.535156 -4.957031 6.296875 -5.46875 C 6.066406 -5.976562 5.726562 -6.375 5.28125 -6.65625 C 4.832031 -6.945312 4.304688 -7.09375 3.703125 -7.09375 L 2.765625 -7.078125 L 2.765625 -1.25 C 2.765625 -0.9375 2.859375 -0.722656 3.046875 -0.609375 C 3.234375 -0.492188 3.535156 -0.4375 3.953125 -0.4375 Z M 3.953125 -0.4375 "/></g></g></g><g fill="#ffffff" fill-opacity="1"><g transform="translate(159.993092, 249.054051)"><g/></g></g><g fill="#ffffff" fill-opacity="1"><g transform="translate(164.079056, 249.054051)"><g><path d="M 4.265625 0.234375 C 3.585938 0.234375 2.96875 0.0703125 2.40625 -0.25 C 1.851562 -0.570312 1.410156 -1.03125 1.078125 -1.625 C 0.742188 -2.21875 0.578125 -2.910156 0.578125 -3.703125 C 0.578125 -4.503906 0.734375 -5.210938 1.046875 -5.828125 C 1.367188 -6.441406 1.820312 -6.914062 2.40625 -7.25 C 3 -7.59375 3.691406 -7.765625 4.484375 -7.765625 C 5.171875 -7.765625 5.78125 -7.625 6.3125 -7.34375 C 6.84375 -7.070312 7.109375 -6.648438 7.109375 -6.078125 C 7.117188 -5.722656 7.007812 -5.421875 6.78125 -5.171875 C 6.5625 -4.921875 6.265625 -4.796875 5.890625 -4.796875 C 5.742188 -4.796875 5.617188 -4.820312 5.515625 -4.875 C 5.421875 -4.925781 5.347656 -4.984375 5.296875 -5.046875 C 5.253906 -5.117188 5.238281 -5.175781 5.25 -5.21875 C 5.25 -5.238281 5.300781 -5.28125 5.40625 -5.34375 C 5.519531 -5.414062 5.617188 -5.515625 5.703125 -5.640625 C 5.796875 -5.773438 5.84375 -5.929688 5.84375 -6.109375 C 5.84375 -6.472656 5.71875 -6.757812 5.46875 -6.96875 C 5.226562 -7.175781 4.894531 -7.28125 4.46875 -7.28125 C 3.988281 -7.28125 3.554688 -7.144531 3.171875 -6.875 C 2.796875 -6.601562 2.503906 -6.203125 2.296875 -5.671875 C 2.085938 -5.140625 1.984375 -4.507812 1.984375 -3.78125 C 1.984375 -3.144531 2.09375 -2.566406 2.3125 -2.046875 C 2.539062 -1.523438 2.863281 -1.109375 3.28125 -0.796875 C 3.695312 -0.492188 4.171875 -0.34375 4.703125 -0.34375 C 5.128906 -0.34375 5.492188 -0.429688 5.796875 -0.609375 C 6.109375 -0.785156 6.382812 -1.078125 6.625 -1.484375 C 6.664062 -1.546875 6.722656 -1.578125 6.796875 -1.578125 C 6.859375 -1.578125 6.929688 -1.554688 7.015625 -1.515625 C 7.140625 -1.429688 7.203125 -1.34375 7.203125 -1.25 C 7.203125 -1.207031 7.1875 -1.164062 7.15625 -1.125 C 6.851562 -0.75 6.566406 -0.460938 6.296875 -0.265625 C 6.035156 -0.0664062 5.75 0.0625 5.4375 0.125 C 5.125 0.195312 4.734375 0.234375 4.265625 0.234375 Z M 4.265625 0.234375 "/></g></g></g><g fill="#ffffff" fill-opacity="1"><g transform="translate(173.118057, 249.054051)"><g><path d="M 4.359375 0.234375 C 3.609375 0.234375 2.941406 0.0546875 2.359375 -0.296875 C 1.785156 -0.660156 1.34375 -1.140625 1.03125 -1.734375 C 0.71875 -2.335938 0.5625 -2.976562 0.5625 -3.65625 C 0.5625 -4.488281 0.75 -5.210938 1.125 -5.828125 C 1.5 -6.453125 1.976562 -6.929688 2.5625 -7.265625 C 3.15625 -7.597656 3.753906 -7.765625 4.359375 -7.765625 C 5.128906 -7.765625 5.804688 -7.582031 6.390625 -7.21875 C 6.972656 -6.851562 7.421875 -6.375 7.734375 -5.78125 C 8.046875 -5.195312 8.203125 -4.5625 8.203125 -3.875 C 8.203125 -3.039062 8.007812 -2.3125 7.625 -1.6875 C 7.25 -1.0625 6.757812 -0.582031 6.15625 -0.25 C 5.5625 0.0703125 4.960938 0.234375 4.359375 0.234375 Z M 4.34375 -0.28125 C 4.882812 -0.28125 5.335938 -0.441406 5.703125 -0.765625 C 6.066406 -1.085938 6.335938 -1.519531 6.515625 -2.0625 C 6.691406 -2.613281 6.78125 -3.21875 6.78125 -3.875 C 6.78125 -4.488281 6.6875 -5.050781 6.5 -5.5625 C 6.320312 -6.070312 6.050781 -6.476562 5.6875 -6.78125 C 5.320312 -7.09375 4.875 -7.25 4.34375 -7.25 C 3.550781 -7.25 2.953125 -6.910156 2.546875 -6.234375 C 2.148438 -5.566406 1.953125 -4.722656 1.953125 -3.703125 C 1.953125 -3.078125 2.039062 -2.503906 2.21875 -1.984375 C 2.394531 -1.472656 2.660156 -1.0625 3.015625 -0.75 C 3.378906 -0.4375 3.820312 -0.28125 4.34375 -0.28125 Z M 4.34375 -0.28125 "/></g></g></g><g fill="#ffffff" fill-opacity="1"><g transform="translate(183.30006, 249.054051)"><g><path d="M 0.734375 0.03125 C 0.660156 0.03125 0.609375 0.00390625 0.578125 -0.046875 C 0.546875 -0.0976562 0.53125 -0.15625 0.53125 -0.21875 C 0.53125 -0.34375 0.550781 -0.414062 0.59375 -0.4375 C 0.632812 -0.46875 0.710938 -0.484375 0.828125 -0.484375 C 1.054688 -0.484375 1.222656 -0.523438 1.328125 -0.609375 C 1.429688 -0.691406 1.492188 -0.789062 1.515625 -0.90625 C 1.546875 -1.019531 1.566406 -1.179688 1.578125 -1.390625 L 1.59375 -6.125 C 1.59375 -6.363281 1.566406 -6.546875 1.515625 -6.671875 C 1.460938 -6.796875 1.378906 -6.882812 1.265625 -6.9375 C 1.160156 -6.988281 1.003906 -7.035156 0.796875 -7.078125 C 0.660156 -7.109375 0.578125 -7.132812 0.546875 -7.15625 C 0.515625 -7.175781 0.5 -7.242188 0.5 -7.359375 C 0.5 -7.453125 0.523438 -7.515625 0.578125 -7.546875 C 0.628906 -7.578125 0.710938 -7.59375 0.828125 -7.59375 C 1.316406 -7.59375 1.703125 -7.554688 1.984375 -7.484375 C 2.273438 -7.421875 2.53125 -7.300781 2.75 -7.125 C 2.96875 -6.945312 3.207031 -6.679688 3.46875 -6.328125 L 6.734375 -2.03125 L 6.765625 -2.03125 L 6.75 -6.125 C 6.738281 -6.34375 6.722656 -6.507812 6.703125 -6.625 C 6.679688 -6.738281 6.613281 -6.835938 6.5 -6.921875 C 6.394531 -7.003906 6.226562 -7.046875 6 -7.046875 L 5.921875 -7.046875 C 5.847656 -7.046875 5.789062 -7.054688 5.75 -7.078125 C 5.71875 -7.109375 5.695312 -7.179688 5.6875 -7.296875 C 5.6875 -7.367188 5.707031 -7.429688 5.75 -7.484375 C 5.789062 -7.535156 5.84375 -7.5625 5.90625 -7.5625 C 6.414062 -7.53125 6.796875 -7.515625 7.046875 -7.515625 C 7.191406 -7.515625 7.484375 -7.523438 7.921875 -7.546875 L 8.171875 -7.5625 C 8.242188 -7.5625 8.296875 -7.535156 8.328125 -7.484375 C 8.359375 -7.429688 8.375 -7.367188 8.375 -7.296875 C 8.375 -7.179688 8.351562 -7.109375 8.3125 -7.078125 C 8.269531 -7.054688 8.191406 -7.046875 8.078125 -7.046875 C 7.847656 -7.046875 7.679688 -7.003906 7.578125 -6.921875 C 7.472656 -6.835938 7.40625 -6.738281 7.375 -6.625 C 7.351562 -6.507812 7.335938 -6.34375 7.328125 -6.125 L 7.3125 -0.125 C 7.300781 -0.0195312 7.203125 0.03125 7.015625 0.03125 C 6.859375 0.03125 6.742188 -0.0195312 6.671875 -0.125 L 2.171875 -6.125 L 2.140625 -6.125 L 2.15625 -1.390625 C 2.164062 -1.179688 2.179688 -1.019531 2.203125 -0.90625 C 2.222656 -0.789062 2.285156 -0.691406 2.390625 -0.609375 C 2.503906 -0.523438 2.675781 -0.484375 2.90625 -0.484375 L 2.984375 -0.484375 C 3.054688 -0.484375 3.109375 -0.46875 3.140625 -0.4375 C 3.179688 -0.40625 3.207031 -0.332031 3.21875 -0.21875 C 3.21875 -0.15625 3.195312 -0.0976562 3.15625 -0.046875 C 3.125 0.00390625 3.070312 0.03125 3 0.03125 C 2.488281 0.0078125 2.101562 0 1.84375 0 C 1.6875 0 1.410156 0.0078125 1.015625 0.03125 Z M 0.734375 0.03125 "/></g></g></g><g fill="#ffffff" fill-opacity="1"><g transform="translate(193.505877, 249.054051)"><g><path d="M 3.15625 0.234375 C 2.320312 0.234375 1.679688 0.09375 1.234375 -0.1875 C 0.796875 -0.476562 0.578125 -0.910156 0.578125 -1.484375 C 0.578125 -1.765625 0.675781 -2 0.875 -2.1875 C 1.070312 -2.375 1.328125 -2.46875 1.640625 -2.46875 C 1.816406 -2.457031 1.953125 -2.410156 2.046875 -2.328125 C 2.140625 -2.242188 2.1875 -2.164062 2.1875 -2.09375 C 2.1875 -2.09375 2.144531 -2.066406 2.0625 -2.015625 C 1.988281 -1.960938 1.921875 -1.890625 1.859375 -1.796875 C 1.796875 -1.703125 1.765625 -1.570312 1.765625 -1.40625 C 1.765625 -1.03125 1.875 -0.738281 2.09375 -0.53125 C 2.320312 -0.332031 2.675781 -0.234375 3.15625 -0.234375 C 3.476562 -0.234375 3.765625 -0.296875 4.015625 -0.421875 C 4.265625 -0.554688 4.453125 -0.726562 4.578125 -0.9375 C 4.710938 -1.144531 4.78125 -1.363281 4.78125 -1.59375 C 4.78125 -1.882812 4.695312 -2.128906 4.53125 -2.328125 C 4.375 -2.535156 4.175781 -2.707031 3.9375 -2.84375 C 3.695312 -2.988281 3.367188 -3.15625 2.953125 -3.34375 C 2.472656 -3.550781 2.085938 -3.742188 1.796875 -3.921875 C 1.503906 -4.097656 1.253906 -4.332031 1.046875 -4.625 C 0.835938 -4.914062 0.734375 -5.273438 0.734375 -5.703125 C 0.734375 -6.390625 0.96875 -6.90625 1.4375 -7.25 C 1.914062 -7.59375 2.539062 -7.765625 3.3125 -7.765625 C 3.914062 -7.765625 4.441406 -7.632812 4.890625 -7.375 C 5.335938 -7.125 5.5625 -6.753906 5.5625 -6.265625 C 5.5625 -5.972656 5.460938 -5.734375 5.265625 -5.546875 C 5.078125 -5.359375 4.828125 -5.265625 4.515625 -5.265625 C 4.335938 -5.273438 4.195312 -5.320312 4.09375 -5.40625 C 4 -5.488281 3.953125 -5.566406 3.953125 -5.640625 C 3.953125 -5.648438 4.003906 -5.675781 4.109375 -5.71875 C 4.222656 -5.769531 4.320312 -5.84375 4.40625 -5.9375 C 4.488281 -6.03125 4.53125 -6.160156 4.53125 -6.328125 C 4.53125 -6.617188 4.414062 -6.847656 4.1875 -7.015625 C 3.957031 -7.179688 3.671875 -7.265625 3.328125 -7.265625 C 2.835938 -7.265625 2.46875 -7.148438 2.21875 -6.921875 C 1.96875 -6.703125 1.84375 -6.425781 1.84375 -6.09375 C 1.84375 -5.8125 1.914062 -5.578125 2.0625 -5.390625 C 2.21875 -5.203125 2.460938 -5.019531 2.796875 -4.84375 C 3.066406 -4.695312 3.363281 -4.550781 3.6875 -4.40625 C 4.195312 -4.175781 4.597656 -3.96875 4.890625 -3.78125 C 5.191406 -3.59375 5.441406 -3.34375 5.640625 -3.03125 C 5.847656 -2.71875 5.953125 -2.332031 5.953125 -1.875 C 5.953125 -1.476562 5.828125 -1.117188 5.578125 -0.796875 C 5.328125 -0.472656 4.988281 -0.21875 4.5625 -0.03125 C 4.132812 0.144531 3.664062 0.234375 3.15625 0.234375 Z M 3.15625 0.234375 "/></g></g></g><g fill="#ffffff" fill-opacity="1"><g transform="translate(201.42568, 249.054051)"><g><path d="M 4.28125 0.234375 C 3.664062 0.234375 3.140625 0.128906 2.703125 -0.078125 C 2.273438 -0.296875 1.945312 -0.578125 1.71875 -0.921875 C 1.5 -1.273438 1.390625 -1.65625 1.390625 -2.0625 L 1.390625 -6.125 C 1.390625 -6.320312 1.375 -6.484375 1.34375 -6.609375 C 1.3125 -6.734375 1.238281 -6.835938 1.125 -6.921875 C 1.019531 -7.003906 0.851562 -7.046875 0.625 -7.046875 L 0.546875 -7.046875 C 0.460938 -7.046875 0.40625 -7.054688 0.375 -7.078125 C 0.34375 -7.109375 0.328125 -7.179688 0.328125 -7.296875 C 0.328125 -7.367188 0.34375 -7.429688 0.375 -7.484375 C 0.40625 -7.535156 0.457031 -7.5625 0.53125 -7.5625 C 1.039062 -7.53125 1.507812 -7.515625 1.9375 -7.515625 C 2.425781 -7.515625 2.925781 -7.53125 3.4375 -7.5625 C 3.507812 -7.5625 3.5625 -7.535156 3.59375 -7.484375 C 3.625 -7.429688 3.640625 -7.367188 3.640625 -7.296875 C 3.640625 -7.179688 3.617188 -7.109375 3.578125 -7.078125 C 3.546875 -7.054688 3.488281 -7.046875 3.40625 -7.046875 C 3.15625 -7.046875 2.96875 -7.003906 2.84375 -6.921875 C 2.726562 -6.847656 2.65625 -6.75 2.625 -6.625 C 2.601562 -6.507812 2.585938 -6.34375 2.578125 -6.125 L 2.578125 -2.40625 C 2.578125 -1.851562 2.703125 -1.390625 2.953125 -1.015625 C 3.210938 -0.648438 3.71875 -0.46875 4.46875 -0.46875 C 5.195312 -0.46875 5.710938 -0.632812 6.015625 -0.96875 C 6.328125 -1.3125 6.484375 -1.734375 6.484375 -2.234375 L 6.484375 -5.375 C 6.484375 -5.914062 6.460938 -6.296875 6.421875 -6.515625 C 6.378906 -6.742188 6.300781 -6.890625 6.1875 -6.953125 C 6.070312 -7.015625 5.863281 -7.046875 5.5625 -7.046875 L 5.5 -7.046875 C 5.425781 -7.046875 5.367188 -7.054688 5.328125 -7.078125 C 5.296875 -7.109375 5.273438 -7.179688 5.265625 -7.296875 C 5.265625 -7.367188 5.28125 -7.429688 5.3125 -7.484375 C 5.351562 -7.535156 5.410156 -7.5625 5.484375 -7.5625 C 6.003906 -7.53125 6.445312 -7.515625 6.8125 -7.515625 C 7.195312 -7.515625 7.644531 -7.53125 8.15625 -7.5625 C 8.226562 -7.5625 8.28125 -7.535156 8.3125 -7.484375 C 8.351562 -7.429688 8.375 -7.367188 8.375 -7.296875 C 8.363281 -7.179688 8.335938 -7.109375 8.296875 -7.078125 C 8.265625 -7.054688 8.207031 -7.046875 8.125 -7.046875 C 7.8125 -7.046875 7.59375 -7.015625 7.46875 -6.953125 C 7.34375 -6.898438 7.257812 -6.769531 7.21875 -6.5625 C 7.175781 -6.351562 7.15625 -5.984375 7.15625 -5.453125 L 7.15625 -2.125 C 7.15625 -1.59375 7.003906 -1.148438 6.703125 -0.796875 C 6.410156 -0.441406 6.046875 -0.179688 5.609375 -0.015625 C 5.171875 0.148438 4.726562 0.234375 4.28125 0.234375 Z M 4.28125 0.234375 "/></g></g></g><g fill="#ffffff" fill-opacity="1"><g transform="translate(211.429086, 249.054051)"><g><path d="M 0.71875 0.03125 C 0.65625 0.03125 0.601562 0.00390625 0.5625 -0.046875 C 0.53125 -0.0976562 0.515625 -0.15625 0.515625 -0.21875 C 0.523438 -0.34375 0.546875 -0.414062 0.578125 -0.4375 C 0.617188 -0.46875 0.695312 -0.484375 0.8125 -0.484375 C 1.039062 -0.484375 1.207031 -0.523438 1.3125 -0.609375 C 1.425781 -0.691406 1.5 -0.789062 1.53125 -0.90625 C 1.5625 -1.03125 1.578125 -1.191406 1.578125 -1.390625 L 1.578125 -6.125 C 1.578125 -6.320312 1.5625 -6.484375 1.53125 -6.609375 C 1.5 -6.734375 1.425781 -6.835938 1.3125 -6.921875 C 1.207031 -7.003906 1.039062 -7.046875 0.8125 -7.046875 L 0.734375 -7.046875 C 0.660156 -7.046875 0.609375 -7.054688 0.578125 -7.078125 C 0.546875 -7.109375 0.523438 -7.179688 0.515625 -7.296875 C 0.515625 -7.367188 0.53125 -7.429688 0.5625 -7.484375 C 0.601562 -7.535156 0.65625 -7.5625 0.71875 -7.5625 C 1.238281 -7.53125 1.710938 -7.515625 2.140625 -7.515625 C 2.609375 -7.515625 3.101562 -7.53125 3.625 -7.5625 C 3.695312 -7.5625 3.75 -7.535156 3.78125 -7.484375 C 3.820312 -7.429688 3.84375 -7.367188 3.84375 -7.296875 C 3.832031 -7.179688 3.804688 -7.109375 3.765625 -7.078125 C 3.722656 -7.054688 3.648438 -7.046875 3.546875 -7.046875 C 3.304688 -7.046875 3.128906 -7.003906 3.015625 -6.921875 C 2.910156 -6.835938 2.84375 -6.734375 2.8125 -6.609375 C 2.789062 -6.484375 2.773438 -6.320312 2.765625 -6.125 L 2.765625 -1.21875 C 2.785156 -1.050781 2.804688 -0.921875 2.828125 -0.828125 C 2.847656 -0.734375 2.914062 -0.648438 3.03125 -0.578125 C 3.15625 -0.503906 3.34375 -0.472656 3.59375 -0.484375 L 4.671875 -0.484375 C 4.953125 -0.484375 5.160156 -0.523438 5.296875 -0.609375 C 5.441406 -0.691406 5.554688 -0.820312 5.640625 -1 C 5.722656 -1.175781 5.828125 -1.460938 5.953125 -1.859375 C 6.003906 -2.003906 6.140625 -2.0625 6.359375 -2.03125 C 6.429688 -2.007812 6.5 -1.972656 6.5625 -1.921875 C 6.625 -1.878906 6.648438 -1.820312 6.640625 -1.75 L 6.40625 -0.25 C 6.375 -0.144531 6.332031 -0.078125 6.28125 -0.046875 C 6.238281 -0.015625 6.164062 0 6.0625 0 L 2.140625 0 C 1.710938 0 1.238281 0.0078125 0.71875 0.03125 Z M 0.71875 0.03125 "/></g></g></g><g fill="#ffffff" fill-opacity="1"><g transform="translate(219.658452, 249.054051)"><g><path d="M 2.140625 0.03125 C 2.066406 0.03125 2.007812 0.00390625 1.96875 -0.046875 C 1.9375 -0.0976562 1.921875 -0.15625 1.921875 -0.21875 C 1.929688 -0.34375 1.953125 -0.414062 1.984375 -0.4375 C 2.023438 -0.46875 2.101562 -0.484375 2.21875 -0.484375 C 2.445312 -0.484375 2.613281 -0.523438 2.71875 -0.609375 C 2.832031 -0.691406 2.90625 -0.789062 2.9375 -0.90625 C 2.96875 -1.03125 2.988281 -1.191406 3 -1.390625 L 3 -7.078125 L 2.171875 -7.078125 C 1.898438 -7.066406 1.691406 -7.007812 1.546875 -6.90625 C 1.398438 -6.800781 1.285156 -6.640625 1.203125 -6.421875 C 1.128906 -6.210938 1.066406 -5.914062 1.015625 -5.53125 C 1.003906 -5.46875 0.953125 -5.414062 0.859375 -5.375 C 0.773438 -5.332031 0.6875 -5.3125 0.59375 -5.3125 C 0.519531 -5.3125 0.453125 -5.332031 0.390625 -5.375 C 0.335938 -5.425781 0.3125 -5.488281 0.3125 -5.5625 L 0.34375 -7.234375 C 0.34375 -7.421875 0.453125 -7.515625 0.671875 -7.515625 L 6.5 -7.515625 C 6.707031 -7.515625 6.8125 -7.421875 6.8125 -7.234375 L 6.859375 -5.5625 C 6.859375 -5.488281 6.828125 -5.425781 6.765625 -5.375 C 6.703125 -5.332031 6.632812 -5.3125 6.5625 -5.3125 C 6.457031 -5.3125 6.363281 -5.332031 6.28125 -5.375 C 6.195312 -5.414062 6.15625 -5.46875 6.15625 -5.53125 C 6.09375 -5.925781 6.023438 -6.226562 5.953125 -6.4375 C 5.878906 -6.644531 5.765625 -6.800781 5.609375 -6.90625 C 5.460938 -7.007812 5.253906 -7.066406 4.984375 -7.078125 L 4.171875 -7.078125 L 4.171875 -1.390625 C 4.179688 -1.191406 4.195312 -1.03125 4.21875 -0.90625 C 4.25 -0.789062 4.320312 -0.691406 4.4375 -0.609375 C 4.550781 -0.523438 4.722656 -0.484375 4.953125 -0.484375 L 5.015625 -0.484375 C 5.085938 -0.484375 5.140625 -0.46875 5.171875 -0.4375 C 5.210938 -0.40625 5.238281 -0.332031 5.25 -0.21875 C 5.25 -0.15625 5.226562 -0.0976562 5.1875 -0.046875 C 5.15625 0.00390625 5.101562 0.03125 5.03125 0.03125 C 4.519531 0.0078125 4.050781 0 3.625 0 C 3.144531 0 2.648438 0.0078125 2.140625 0.03125 Z M 2.140625 0.03125 "/></g></g></g><g fill="#ffffff" fill-opacity="1"><g transform="translate(228.233103, 249.054051)"><g><path d="M 0.71875 0.03125 C 0.644531 0.03125 0.585938 0.00390625 0.546875 -0.046875 C 0.515625 -0.0976562 0.5 -0.15625 0.5 -0.21875 C 0.507812 -0.34375 0.535156 -0.414062 0.578125 -0.4375 C 0.617188 -0.46875 0.691406 -0.484375 0.796875 -0.484375 C 1.023438 -0.484375 1.195312 -0.523438 1.3125 -0.609375 C 1.425781 -0.691406 1.5 -0.789062 1.53125 -0.90625 C 1.5625 -1.019531 1.578125 -1.179688 1.578125 -1.390625 L 1.578125 -6.125 C 1.578125 -6.332031 1.5625 -6.492188 1.53125 -6.609375 C 1.5 -6.734375 1.425781 -6.835938 1.3125 -6.921875 C 1.195312 -7.003906 1.023438 -7.046875 0.796875 -7.046875 L 0.734375 -7.046875 C 0.660156 -7.046875 0.601562 -7.054688 0.5625 -7.078125 C 0.53125 -7.109375 0.507812 -7.179688 0.5 -7.296875 C 0.5 -7.367188 0.515625 -7.429688 0.546875 -7.484375 C 0.585938 -7.535156 0.644531 -7.5625 0.71875 -7.5625 C 1.226562 -7.53125 1.703125 -7.515625 2.140625 -7.515625 C 2.609375 -7.515625 3.101562 -7.53125 3.625 -7.5625 C 3.695312 -7.5625 3.75 -7.535156 3.78125 -7.484375 C 3.820312 -7.429688 3.84375 -7.367188 3.84375 -7.296875 C 3.832031 -7.179688 3.804688 -7.109375 3.765625 -7.078125 C 3.722656 -7.054688 3.644531 -7.046875 3.53125 -7.046875 C 3.300781 -7.046875 3.128906 -7.003906 3.015625 -6.921875 C 2.898438 -6.835938 2.828125 -6.734375 2.796875 -6.609375 C 2.773438 -6.484375 2.757812 -6.320312 2.75 -6.125 L 2.75 -1.390625 C 2.757812 -1.191406 2.773438 -1.03125 2.796875 -0.90625 C 2.828125 -0.789062 2.898438 -0.691406 3.015625 -0.609375 C 3.128906 -0.523438 3.300781 -0.484375 3.53125 -0.484375 L 3.59375 -0.484375 C 3.675781 -0.484375 3.734375 -0.46875 3.765625 -0.4375 C 3.804688 -0.40625 3.832031 -0.332031 3.84375 -0.21875 C 3.84375 -0.15625 3.820312 -0.0976562 3.78125 -0.046875 C 3.75 0.00390625 3.695312 0.03125 3.625 0.03125 C 3.113281 0.0078125 2.617188 0 2.140625 0 C 1.703125 0 1.226562 0.0078125 0.71875 0.03125 Z M 0.71875 0.03125 "/></g></g></g><g fill="#ffffff" fill-opacity="1"><g transform="translate(233.997858, 249.054051)"><g><path d="M 0.734375 0.03125 C 0.660156 0.03125 0.609375 0.00390625 0.578125 -0.046875 C 0.546875 -0.0976562 0.53125 -0.15625 0.53125 -0.21875 C 0.53125 -0.34375 0.550781 -0.414062 0.59375 -0.4375 C 0.632812 -0.46875 0.710938 -0.484375 0.828125 -0.484375 C 1.054688 -0.484375 1.222656 -0.523438 1.328125 -0.609375 C 1.429688 -0.691406 1.492188 -0.789062 1.515625 -0.90625 C 1.546875 -1.019531 1.566406 -1.179688 1.578125 -1.390625 L 1.59375 -6.125 C 1.59375 -6.363281 1.566406 -6.546875 1.515625 -6.671875 C 1.460938 -6.796875 1.378906 -6.882812 1.265625 -6.9375 C 1.160156 -6.988281 1.003906 -7.035156 0.796875 -7.078125 C 0.660156 -7.109375 0.578125 -7.132812 0.546875 -7.15625 C 0.515625 -7.175781 0.5 -7.242188 0.5 -7.359375 C 0.5 -7.453125 0.523438 -7.515625 0.578125 -7.546875 C 0.628906 -7.578125 0.710938 -7.59375 0.828125 -7.59375 C 1.316406 -7.59375 1.703125 -7.554688 1.984375 -7.484375 C 2.273438 -7.421875 2.53125 -7.300781 2.75 -7.125 C 2.96875 -6.945312 3.207031 -6.679688 3.46875 -6.328125 L 6.734375 -2.03125 L 6.765625 -2.03125 L 6.75 -6.125 C 6.738281 -6.34375 6.722656 -6.507812 6.703125 -6.625 C 6.679688 -6.738281 6.613281 -6.835938 6.5 -6.921875 C 6.394531 -7.003906 6.226562 -7.046875 6 -7.046875 L 5.921875 -7.046875 C 5.847656 -7.046875 5.789062 -7.054688 5.75 -7.078125 C 5.71875 -7.109375 5.695312 -7.179688 5.6875 -7.296875 C 5.6875 -7.367188 5.707031 -7.429688 5.75 -7.484375 C 5.789062 -7.535156 5.84375 -7.5625 5.90625 -7.5625 C 6.414062 -7.53125 6.796875 -7.515625 7.046875 -7.515625 C 7.191406 -7.515625 7.484375 -7.523438 7.921875 -7.546875 L 8.171875 -7.5625 C 8.242188 -7.5625 8.296875 -7.535156 8.328125 -7.484375 C 8.359375 -7.429688 8.375 -7.367188 8.375 -7.296875 C 8.375 -7.179688 8.351562 -7.109375 8.3125 -7.078125 C 8.269531 -7.054688 8.191406 -7.046875 8.078125 -7.046875 C 7.847656 -7.046875 7.679688 -7.003906 7.578125 -6.921875 C 7.472656 -6.835938 7.40625 -6.738281 7.375 -6.625 C 7.351562 -6.507812 7.335938 -6.34375 7.328125 -6.125 L 7.3125 -0.125 C 7.300781 -0.0195312 7.203125 0.03125 7.015625 0.03125 C 6.859375 0.03125 6.742188 -0.0195312 6.671875 -0.125 L 2.171875 -6.125 L 2.140625 -6.125 L 2.15625 -1.390625 C 2.164062 -1.179688 2.179688 -1.019531 2.203125 -0.90625 C 2.222656 -0.789062 2.285156 -0.691406 2.390625 -0.609375 C 2.503906 -0.523438 2.675781 -0.484375 2.90625 -0.484375 L 2.984375 -0.484375 C 3.054688 -0.484375 3.109375 -0.46875 3.140625 -0.4375 C 3.179688 -0.40625 3.207031 -0.332031 3.21875 -0.21875 C 3.21875 -0.15625 3.195312 -0.0976562 3.15625 -0.046875 C 3.125 0.00390625 3.070312 0.03125 3 0.03125 C 2.488281 0.0078125 2.101562 0 1.84375 0 C 1.6875 0 1.410156 0.0078125 1.015625 0.03125 Z M 0.734375 0.03125 "/></g></g></g><g fill="#ffffff" fill-opacity="1"><g transform="translate(244.203675, 249.054051)"><g><path d="M 4.28125 0.234375 C 3.59375 0.234375 2.96875 0.09375 2.40625 -0.1875 C 1.84375 -0.476562 1.394531 -0.921875 1.0625 -1.515625 C 0.738281 -2.109375 0.578125 -2.835938 0.578125 -3.703125 C 0.578125 -4.503906 0.753906 -5.210938 1.109375 -5.828125 C 1.460938 -6.441406 1.953125 -6.914062 2.578125 -7.25 C 3.210938 -7.59375 3.9375 -7.765625 4.75 -7.765625 C 5.144531 -7.765625 5.535156 -7.703125 5.921875 -7.578125 C 6.316406 -7.460938 6.640625 -7.273438 6.890625 -7.015625 C 7.140625 -6.765625 7.265625 -6.453125 7.265625 -6.078125 C 7.265625 -5.734375 7.160156 -5.429688 6.953125 -5.171875 C 6.753906 -4.921875 6.484375 -4.796875 6.140625 -4.796875 C 5.972656 -4.796875 5.8125 -4.832031 5.65625 -4.90625 C 5.5 -4.988281 5.414062 -5.09375 5.40625 -5.21875 C 5.40625 -5.226562 5.457031 -5.269531 5.5625 -5.34375 C 5.675781 -5.425781 5.78125 -5.535156 5.875 -5.671875 C 5.96875 -5.804688 6.015625 -5.96875 6.015625 -6.15625 C 6.015625 -6.5 5.878906 -6.769531 5.609375 -6.96875 C 5.347656 -7.175781 5.015625 -7.28125 4.609375 -7.28125 C 4.109375 -7.28125 3.660156 -7.144531 3.265625 -6.875 C 2.867188 -6.601562 2.554688 -6.203125 2.328125 -5.671875 C 2.097656 -5.140625 1.984375 -4.507812 1.984375 -3.78125 C 1.984375 -3.070312 2.09375 -2.457031 2.3125 -1.9375 C 2.539062 -1.425781 2.859375 -1.03125 3.265625 -0.75 C 3.679688 -0.476562 4.160156 -0.34375 4.703125 -0.34375 C 4.953125 -0.34375 5.171875 -0.351562 5.359375 -0.375 C 5.554688 -0.40625 5.765625 -0.457031 5.984375 -0.53125 L 5.984375 -1.75 C 5.984375 -2.03125 5.972656 -2.222656 5.953125 -2.328125 C 5.929688 -2.441406 5.867188 -2.523438 5.765625 -2.578125 C 5.660156 -2.640625 5.476562 -2.671875 5.21875 -2.671875 C 5.132812 -2.671875 5.070312 -2.679688 5.03125 -2.703125 C 4.988281 -2.734375 4.960938 -2.804688 4.953125 -2.921875 C 4.953125 -2.992188 4.972656 -3.054688 5.015625 -3.109375 C 5.066406 -3.160156 5.128906 -3.1875 5.203125 -3.1875 C 5.710938 -3.15625 6.148438 -3.140625 6.515625 -3.140625 C 6.878906 -3.140625 7.3125 -3.15625 7.8125 -3.1875 C 7.882812 -3.1875 7.9375 -3.160156 7.96875 -3.109375 C 8.007812 -3.054688 8.03125 -2.992188 8.03125 -2.921875 C 8.019531 -2.804688 7.992188 -2.734375 7.953125 -2.703125 C 7.921875 -2.679688 7.859375 -2.671875 7.765625 -2.671875 C 7.535156 -2.671875 7.367188 -2.640625 7.265625 -2.578125 C 7.160156 -2.515625 7.09375 -2.425781 7.0625 -2.3125 C 7.039062 -2.195312 7.03125 -2.007812 7.03125 -1.75 L 7.03125 -0.34375 C 6.5625 -0.125 6.128906 0.0234375 5.734375 0.109375 C 5.347656 0.191406 4.863281 0.234375 4.28125 0.234375 Z M 4.28125 0.234375 "/></g></g></g></svg>